<?xml version="1.0" encoding="UTF-8" standalone="no"?>
<!-- Created with Inkscape (http://www.inkscape.org/) -->

<svg
   xmlns:dc="http://purl.org/dc/elements/1.1/"
   xmlns:cc="http://creativecommons.org/ns#"
   xmlns:rdf="http://www.w3.org/1999/02/22-rdf-syntax-ns#"
   xmlns:svg="http://www.w3.org/2000/svg"
   xmlns="http://www.w3.org/2000/svg"
   xmlns:xlink="http://www.w3.org/1999/xlink"
   xmlns:sodipodi="http://sodipodi.sourceforge.net/DTD/sodipodi-0.dtd"
   xmlns:inkscape="http://www.inkscape.org/namespaces/inkscape"
   width="300.35052"
   height="120.82709"
   viewBox="0 0 300.35052 120.82709"
   id="svg2"
   version="1.1"
   inkscape:version="0.91 r13725"
   sodipodi:docname="girpas_bw_textfr.svg"
   inkscape:export-filename="/mnt/hgfs/Aldebaran/Image/logos/girpas/girpas_proposal02b_rev02_bicolor_relief.png"
   inkscape:export-xdpi="600"
   inkscape:export-ydpi="600">
  <sodipodi:namedview
     id="base"
     pagecolor="#ffffff"
     bordercolor="#666666"
     borderopacity="1.0"
     inkscape:pageopacity="0"
     inkscape:pageshadow="2"
     inkscape:zoom="2.0000001"
     inkscape:cx="211.74016"
     inkscape:cy="-28.003873"
     inkscape:document-units="px"
     inkscape:current-layer="layer1"
     showgrid="false"
     inkscape:snap-center="false"
     inkscape:window-width="1920"
     inkscape:window-height="1021"
     inkscape:window-x="0"
     inkscape:window-y="26"
     inkscape:window-maximized="1"
     units="px"
     fit-margin-top="8"
     fit-margin-bottom="8"
     fit-margin-left="7"
     fit-margin-right="7"
     showguides="true" />
  <defs
     id="defs4">
    <linearGradient
       id="linearGradient4236"
       inkscape:collect="always">
      <stop
         id="stop4238"
         offset="0"
         style="stop-color:#a1a1a1;stop-opacity:1" />
      <stop
         id="stop4240"
         offset="1"
         style="stop-color:#a1a1a1;stop-opacity:0" />
    </linearGradient>
    <linearGradient
       id="linearGradient4230"
       inkscape:collect="always">
      <stop
         id="stop4232"
         offset="0"
         style="stop-color:#a1a1a1;stop-opacity:1" />
      <stop
         id="stop4234"
         offset="1"
         style="stop-color:#a1a1a1;stop-opacity:0" />
    </linearGradient>
    <linearGradient
       id="linearGradient4224"
       inkscape:collect="always">
      <stop
         id="stop4226"
         offset="0"
         style="stop-color:#a1a1a1;stop-opacity:1" />
      <stop
         id="stop4228"
         offset="1"
         style="stop-color:#a1a1a1;stop-opacity:0" />
    </linearGradient>
    <linearGradient
       id="linearGradient4218"
       inkscape:collect="always">
      <stop
         id="stop4220"
         offset="0"
         style="stop-color:#a1a1a1;stop-opacity:1" />
      <stop
         id="stop4222"
         offset="1"
         style="stop-color:#a1a1a1;stop-opacity:0" />
    </linearGradient>
    <linearGradient
       id="linearGradient4212"
       inkscape:collect="always">
      <stop
         id="stop4214"
         offset="0"
         style="stop-color:#a1a1a1;stop-opacity:1" />
      <stop
         id="stop4216"
         offset="1"
         style="stop-color:#a1a1a1;stop-opacity:0" />
    </linearGradient>
    <linearGradient
       id="linearGradient4206"
       inkscape:collect="always">
      <stop
         id="stop4208"
         offset="0"
         style="stop-color:#a1a1a1;stop-opacity:1" />
      <stop
         id="stop4210"
         offset="1"
         style="stop-color:#a1a1a1;stop-opacity:0" />
    </linearGradient>
    <linearGradient
       inkscape:collect="always"
       id="linearGradient5090">
      <stop
         style="stop-color:#b4b4b4;stop-opacity:1"
         offset="0"
         id="stop5092" />
      <stop
         style="stop-color:#595959;stop-opacity:1"
         offset="1"
         id="stop5094" />
    </linearGradient>
    <linearGradient
       inkscape:collect="always"
       id="linearGradient5080">
      <stop
         style="stop-color:#dedede;stop-opacity:1"
         offset="0"
         id="stop5082" />
      <stop
         style="stop-color:#a1a1a1;stop-opacity:1"
         offset="1"
         id="stop5084" />
    </linearGradient>
    <linearGradient
       inkscape:collect="always"
       id="linearGradient5074">
      <stop
         style="stop-color:#a1a1a1;stop-opacity:1"
         offset="0"
         id="stop5076" />
      <stop
         style="stop-color:#a1a1a1;stop-opacity:0"
         offset="1"
         id="stop5078" />
    </linearGradient>
    <linearGradient
       inkscape:collect="always"
       id="linearGradient4615">
      <stop
         style="stop-color:#595959;stop-opacity:1"
         offset="0"
         id="stop4617" />
      <stop
         style="stop-color:#595959;stop-opacity:0"
         offset="1"
         id="stop4619" />
    </linearGradient>
    <radialGradient
       inkscape:collect="always"
       xlink:href="#linearGradient4615"
       id="radialGradient4621"
       cx="209.68158"
       cy="1128.5444"
       fx="209.68158"
       fy="1128.5444"
       r="49.127625"
       gradientTransform="matrix(-0.82480413,-0.84222968,0.81326076,-0.79643456,-609.89768,2063.2191)"
       gradientUnits="userSpaceOnUse" />
    <linearGradient
       inkscape:collect="always"
       xlink:href="#linearGradient4206"
       id="linearGradient5502"
       x1="26.913671"
       y1="987.48151"
       x2="68.602615"
       y2="987.48151"
       gradientUnits="userSpaceOnUse"
       gradientTransform="matrix(0.99993234,-0.0096479,0.0060153,0.907017,-4.2969727,92.25614)" />
    <linearGradient
       inkscape:collect="always"
       xlink:href="#linearGradient4212"
       id="linearGradient4336"
       gradientUnits="userSpaceOnUse"
       gradientTransform="matrix(0.94436976,0.32882142,-0.30084195,0.85569279,304.72044,106.76894)"
       x1="26.915524"
       y1="985.6264"
       x2="67.818672"
       y2="988.10162" />
    <linearGradient
       inkscape:collect="always"
       xlink:href="#linearGradient4224"
       id="linearGradient4340"
       gradientUnits="userSpaceOnUse"
       gradientTransform="matrix(0.43559601,0.90011882,-0.81764635,0.39264546,866.41729,505.68647)"
       x1="26.966839"
       y1="985.32129"
       x2="67.933838"
       y2="988.46564" />
    <linearGradient
       inkscape:collect="always"
       xlink:href="#linearGradient4218"
       id="linearGradient4378"
       gradientUnits="userSpaceOnUse"
       gradientTransform="matrix(0.75884627,0.65123736,-0.59278236,0.6865312,612.26466,240.34691)"
       x1="26.778408"
       y1="985.51593"
       x2="68.576775"
       y2="987.87018" />
    <linearGradient
       inkscape:collect="always"
       xlink:href="#linearGradient5074"
       id="linearGradient4411"
       gradientUnits="userSpaceOnUse"
       gradientTransform="matrix(0.94436976,0.32882142,-0.30084195,0.85569279,304.72044,106.76894)"
       x1="26.915524"
       y1="985.6264"
       x2="67.818672"
       y2="988.10162" />
    <linearGradient
       inkscape:collect="always"
       xlink:href="#linearGradient4230"
       id="linearGradient4413"
       gradientUnits="userSpaceOnUse"
       gradientTransform="matrix(0.43559601,0.90011882,-0.81764635,0.39264546,866.41729,505.68647)"
       x1="26.966839"
       y1="985.32129"
       x2="67.933838"
       y2="988.46564" />
    <linearGradient
       inkscape:collect="always"
       xlink:href="#linearGradient4236"
       id="linearGradient4415"
       gradientUnits="userSpaceOnUse"
       gradientTransform="matrix(0.75884627,0.65123736,-0.59278236,0.6865312,612.26466,240.34691)"
       x1="26.778408"
       y1="985.51593"
       x2="68.576775"
       y2="987.87018" />
    <radialGradient
       inkscape:collect="always"
       xlink:href="#linearGradient5080"
       id="radialGradient5117"
       cx="93.722038"
       cy="983.47186"
       fx="93.722038"
       fy="983.47186"
       r="21.868164"
       gradientTransform="matrix(-1.2289006,-0.83932565,1.0322681,-1.5113977,-806.44632,2528.5186)"
       gradientUnits="userSpaceOnUse" />
    <radialGradient
       inkscape:collect="always"
       xlink:href="#linearGradient5090"
       id="radialGradient5119"
       cx="88.342873"
       cy="966.86078"
       fx="88.342873"
       fy="966.86078"
       r="45.96094"
       gradientTransform="matrix(0.35738954,1.0887291,-1.0030961,0.32927937,1031.2921,549.15125)"
       gradientUnits="userSpaceOnUse" />
  </defs>
  <metadata
     id="metadata7">
    <rdf:RDF>
      <cc:Work
         rdf:about="">
        <dc:format>image/svg+xml</dc:format>
        <dc:type
           rdf:resource="http://purl.org/dc/dcmitype/StillImage" />
        <dc:title></dc:title>
      </cc:Work>
    </rdf:RDF>
  </metadata>
  <g
     inkscape:groupmode="layer"
     id="layer2"
     inkscape:label="Calque 2"
     style="display:none">
    <path
       style="opacity:1;fill:none;fill-rule:evenodd;stroke:#000000;stroke-width:1px;stroke-linecap:butt;stroke-linejoin:miter;stroke-opacity:1"
       d="m 101.70507,-1.8524364 0,123.7272164"
       id="path4258"
       inkscape:connector-curvature="0" />
    <path
       inkscape:connector-curvature="0"
       id="path4260"
       d="m 37.117973,60.08593 129.141887,0"
       style="opacity:1;fill:none;fill-rule:evenodd;stroke:#000000;stroke-width:1.17653477px;stroke-linecap:butt;stroke-linejoin:miter;stroke-opacity:1"
       sodipodi:nodetypes="cc" />
    <path
       id="path4239"
       d="m 99.120068,936.1602 a 47.339745,50.98219 0 0 0 -44.963926,50.85424 47.339745,50.98219 0 0 0 45.048418,50.89446 c -2.215489,-0.936 -4.28364,-3.2082 -6.117637,-6.5421 -2.45346,-4.4601 -4.519079,-10.8684 -5.970781,-18.7854 -2.903416,-15.83421 -2.903416,-35.2997 0,-51.13389 1.451702,-7.917 3.517321,-14.32533 5.970781,-18.78543 1.810513,-3.29126 3.849739,-5.54418 6.033145,-6.50188 z m 7.598262,0.22732 c 1.82507,0.51954 3.59664,1.29761 5.29485,2.32555 1.23435,0 2.67766,10e-5 3.50441,0 l 0.9958,0 a 47.339745,50.98219 0 0 0 -9.79506,-2.32555 z m -5.22242,0.0382 c -1.56624,0 -3.125267,0.79382 -4.626956,2.28732 l 6.847896,0 c -0.27967,-0.56309 -0.56175,-1.03789 -0.8409,-1.39211 -0.49555,-0.62892 -0.95446,-0.89521 -1.38004,-0.89521 z m 1.65765,0.0785 c 0.0943,0.0978 0.18741,0.19527 0.27762,0.30981 0.38859,0.49306 0.75475,1.13573 1.10644,1.89906 1.24791,0 1.90955,-10e-5 5.05546,0 l 0.85699,0 c -2.32603,-1.22117 -4.77106,-1.97763 -7.29651,-2.20887 z m 14.33954,2.59311 0.19513,0.40235 -0.0363,0 -0.10662,0 -0.41844,0 c -0.36762,10e-5 -0.91052,0 -1.60937,0 l -2.29538,0 c 2.92752,2.01045 5.62516,4.74297 8.01067,8.06699 2.33388,0 5.05621,10e-5 6.61655,0 1.31339,0 2.33274,10e-5 3.0236,0 l 0.49288,0 a 47.339745,50.98219 0 0 0 -13.87281,-8.46934 z m -21.350377,0.40235 c -0.833466,0.97232 -1.648918,2.14619 -2.428144,3.56275 -0.723606,1.31541 -1.411635,2.83585 -2.066035,4.50424 8.483086,0 11.522756,10e-5 14.679506,0 -0.59667,-3.01347 -1.2606,-5.51964 -1.96946,-7.37899 -0.0929,-0.24391 -0.18525,-0.46645 -0.27964,-0.688 l -7.936227,0 z m 8.732877,0 c 0.0529,0.13112 0.1066,0.25297 0.15892,0.39027 0.74874,1.9639 1.43384,4.55767 2.04391,7.67672 2.17865,0 3.6056,-2.1e-4 9.6321,0 l 3.59092,0 c -2.52694,-3.41651 -5.38017,-6.16139 -8.46934,-8.06699 l -2.23903,0 c -2.93558,-1.1e-4 -3.57805,0 -4.71748,0 z m 26.93691,8.48744 0.11467,0.36613 -0.0181,0 -0.0503,0 -0.20117,0 c -0.17702,0 -0.43913,-10e-5 -0.78458,0 -0.69088,0 -1.7102,-10e-5 -3.0236,0 -1.43225,10e-5 -3.9854,0 -6.07339,0 0.5299,0.77405 1.04872,1.56655 1.545,2.39796 1.84727,3.09495 3.45228,6.58652 4.77985,10.37847 3.13767,0 6.80077,10e-5 8.89984,0 1.76954,0 3.14293,10e-5 4.07373,0 l 1.05816,0 0.0161,0 A 47.339745,50.98219 0 0 0 131.81251,947.9871 Z m -40.467736,0.36613 c -1.334252,3.57565 -2.497484,7.87033 -3.419922,12.77643 l 20.278128,0 c -0.35169,-3.68184 -0.76897,-7.09525 -1.2533,-10.09883 -0.1514,-0.93885 -0.31196,-1.81487 -0.47477,-2.6776 l -15.130136,0 z m 15.874476,0 c 0.15393,0.82431 0.30692,1.65377 0.45062,2.54482 0.49136,3.04715 0.91251,6.50322 1.26739,10.23161 l 13.05806,0 5.32502,0 c -1.29137,-3.63724 -2.84065,-6.98279 -4.61287,-9.95197 -0.58883,-0.98654 -1.20611,-1.923 -1.84072,-2.82446 l -4.15622,0 c -5.93838,-3.1e-4 -7.36356,0 -9.49128,0 z m 35.19502,13.24113 0.0785,0.32188 -0.0201,0 -0.0684,0 -0.27159,0 c -0.23849,1e-4 -0.59276,0 -1.05816,0 -0.93082,1e-4 -2.3042,0 -4.07374,0 l -8.63026,0 c 0.64688,1.92502 1.21815,3.92783 1.71398,5.99492 0.11938,0.0787 0.25238,0.14915 0.36613,0.23135 2.66364,1.91087 3.99527,4.9322 3.99527,9.06279 0,0.19228 -0.0119,0.37563 -0.0181,0.56328 2.73405,3e-5 5.68782,8e-5 7.44337,0 2.01225,-10e-5 3.5725,0 4.63097,0 l 1.20502,0 0.27158,0 a 47.339745,50.98219 0 0 0 -5.56441,-16.17422 z m -54.636273,0.32188 c -0.901281,4.99684 -1.510533,10.35894 -1.832676,15.85234 l 14.973219,0 0,-12.49277 7.64051,0 c -0.087,-1.14082 -0.17953,-2.26699 -0.27962,-3.35957 l -20.501433,0 z m 21.237713,0 c 0.0998,1.09333 0.191,2.21865 0.27762,3.35957 l 8.64838,0 c 4.86932,0 8.61447,0.70482 11.25356,2.10224 -0.47209,-1.88099 -1.00675,-3.70493 -1.60536,-5.46181 l -5.59459,0 -12.97961,0 z m -42.077108,3.35957 11.146933,0 0,43.22587 -11.146933,0 0,-43.22587 z m 45.126878,8.07704 0,4.41573 11.15699,0 c -0.16242,-1.40133 -0.638,-2.45912 -1.4585,-3.14029 -1.00369,-0.84927 -2.67366,-1.27544 -5.00918,-1.27544 l -4.68931,0 z m 35.91722,4.44993 c -0.0103,0 -0.0281,0.0103 -0.0281,0.0103 l 0.0885,0.40436 a 47.339745,50.98219 0 0 0 -0.0604,-0.41244 l 0,-0.002 z m -62.077614,0.75239 c -0.299678,5.60062 -0.299678,11.31793 0,16.91855 l 15.013454,0 0,-16.91855 -15.013454,0 z m 26.160394,0 0,5.88829 4.68931,0 c 2.33552,0 4.00549,-0.43501 5.00918,-1.30359 1.023,-0.86859 1.53495,-2.29688 1.53495,-4.28496 0,-0.1075 -0.0171,-0.19558 -0.0201,-0.29974 -5.99661,-2.2e-4 -8.83831,-1.1e-4 -11.21332,0 z m 22.31801,0 c -0.18959,2.25152 -0.86056,4.15029 -2.02379,5.68511 -0.0363,0.0484 -0.0775,0.093 -0.11467,0.14083 0.0274,0.87266 0.0462,1.74926 0.0462,2.63334 0,2.02272 -0.0971,4.0043 -0.23537,5.96474 0.47886,0.72477 0.95858,1.57531 1.44039,2.49453 3.05686,5e-5 6.39954,8e-5 8.37479,0 l 4.63097,0 1.20502,0 0.30578,0 0.0785,0 c 0.0172,0 -0.1368,0.0422 -0.1368,0.0422 l 0.11668,0.53109 a 47.339745,50.98219 0 0 0 0.76446,-9.03262 47.339745,50.98219 0 0 0 -0.74434,-8.45927 l -0.0785,0 -0.30578,0 -1.20502,0 c -1.05848,10e-5 -2.61871,0 -4.63097,0 l -7.48762,0 z m -2.84659,6.6286 c -1.33102,1.35753 -3.12643,2.39918 -5.40146,3.11012 1.52485,0.34744 2.88507,1.13852 4.08177,2.37383 0.39321,0.3932 0.78969,0.87778 1.1849,1.40418 0.10053,-1.66411 0.15893,-3.34834 0.15893,-5.05745 0,-0.61381 -0.0107,-1.2225 -0.0241,-1.83068 z m -19.47142,6.96055 0,3.3294 9.42288,0 c -0.63511,-0.94267 -1.27667,-1.67599 -1.92521,-2.14248 -1.0809,-0.79138 -2.52893,-1.18692 -4.34329,-1.18692 l -3.15438,0 z m -26.120159,4.11598 c 0.322184,5.49408 0.93123,10.85508 1.832676,15.85238 l 20.501433,0 c 0.10758,-1.1744 0.20732,-2.3812 0.29974,-3.611 l -7.66063,0 0,-12.24138 c -3.747914,0 -5.992052,0 -14.973219,0 z m 26.120159,0 0,12.24138 -2.75203,0 c -0.092,1.2299 -0.19045,2.4358 -0.29774,3.611 l 12.97961,0 5.59459,0 c 0.40025,-1.1748 0.77211,-2.3798 1.11651,-3.611 l -0.63168,0 -5.2687,-10.74064 c -0.2672,-0.54412 -0.53503,-1.04344 -0.80468,-1.50074 -4.64159,-7e-5 -7.83023,-5e-5 -9.93588,0 z m 21.84525,0 6.03516,12.24138 -10.47503,0 c -0.33959,1.2302 -0.70529,2.4352 -1.1004,3.611 3.01429,10e-5 6.59479,10e-5 8.63027,0 1.76954,-2e-4 3.14293,0 4.07373,0 0.46541,-2e-4 0.8197,0 1.05816,0 l 0.27159,0 0.0664,0 c 0.0151,0 -0.15692,0.05 -0.15692,0.05 l 0.0845,0.3481 a 47.339745,50.98219 0 0 0 5.62878,-16.25067 l -0.0141,0 -0.30578,0 c -0.27119,0 -0.67578,-10e-5 -1.20502,0 -1.05848,0 -2.61871,-10e-5 -4.63097,0 l -7.96038,0 z m -45.985878,16.63898 c 0.922417,4.9055 2.085763,9.2011 3.419922,12.7764 9.040526,3e-4 11.915586,2e-4 15.130136,0 0.16294,-0.8633 0.32325,-1.7401 0.47477,-2.6797 0.48433,-3.0035 0.90161,-6.4149 1.2533,-10.0967 l -20.278128,0 z m 21.012408,0 c -0.35488,3.7285 -0.77603,7.1844 -1.26739,10.2316 -0.14378,0.8916 -0.29659,1.7201 -0.45062,2.5448 2.12772,-10e-5 3.55289,-3e-4 9.49128,0 l 4.15622,0 c 0.63461,-0.9015 1.25189,-1.8379 1.84072,-2.8245 1.77222,-2.9692 3.3215,-6.3147 4.61287,-9.9519 l -5.32502,0 -13.05806,0 z m 19.16363,0 c -1.32757,3.7919 -2.93258,7.2835 -4.77985,10.3784 -0.49628,0.8315 -1.0151,1.6239 -1.545,2.398 2.08799,0 4.64114,10e-5 6.07339,0 1.31339,-10e-5 2.33274,0 3.0236,0 0.34544,0 0.6076,10e-5 0.78458,0 l 0.20117,0 0.0503,0 c 0.0112,0 -0.2052,0.08 -0.2052,0.08 l 0.10259,0.324 a 47.339745,50.98219 0 0 0 10.38449,-13.1808 l -0.0583,0 -1.05816,0 c -0.93081,10e-5 -2.30419,0 -4.07373,0 -2.09908,10e-5 -5.76217,0 -8.89984,0 z m -36.452346,13.563 c 0.654286,1.668 1.342574,3.187 2.066035,4.5022 0.779226,1.4166 1.594679,2.5924 2.428144,3.5648 l 7.936227,0 c 0.0943,-0.2216 0.18668,-0.4442 0.27964,-0.6881 0.7087,-1.8589 1.37289,-4.3663 1.96946,-7.3789 l -14.679506,0 z m 15.429886,0 c -0.60997,3.1181 -1.29532,5.7132 -2.04391,7.6767 -0.0524,0.1375 -0.10588,0.2589 -0.15892,0.3903 1.06813,0 1.72395,-10e-5 4.71748,0 l 2.23502,0 c 3.09059,-1.9057 5.94539,-4.6491 8.47335,-8.067 l -3.59092,0 c -6.02648,-3e-4 -7.45345,0 -9.6321,0 z m 14.15445,0 c -2.38551,3.324 -5.08315,6.0565 -8.01067,8.067 0.72074,0 1.75386,10e-5 2.29538,0 0.69884,-10e-5 1.24179,0 1.60937,0 l 0.41844,0 0.10662,0 c 0.0238,0 -0.26353,0.169 -0.26353,0.169 l 0.0885,0.183 a 47.339745,50.98219 0 0 0 13.86477,-8.419 c -0.14691,0 -0.26236,-10e-5 -0.46874,0 -0.69088,0 -1.7102,-10e-5 -3.0236,0 l -6.61655,0 z m -24.363926,8.8536 c 1.501689,1.4935 3.060716,2.2873 4.626956,2.2873 0.42558,0 0.88449,-0.2664 1.38004,-0.8953 0.27915,-0.3542 0.56124,-0.8289 0.8409,-1.392 l -6.847896,0 z m 7.668666,0 c -0.35153,0.7628 -0.71806,1.4061 -1.10644,1.899 -0.0897,0.1138 -0.1837,0.2113 -0.27762,0.3077 2.52534,-0.2313 4.97058,-0.9857 7.29651,-2.2067 l -0.85699,0 c -3.20798,-10e-5 -3.87222,0 -5.05546,0 z m 7.47556,0 c -1.61757,0.9791 -3.30205,1.728 -5.03534,2.247 a 47.339745,50.98219 0 0 0 9.40278,-2.247 l -0.86303,0 -3.50441,0 z"
       style="fill:#447228;fill-opacity:0.38589214;stroke:none;stroke-width:0.73541999;stroke-miterlimit:4;stroke-dasharray:none;stroke-opacity:1"
       inkscape:connector-curvature="0"
       transform="translate(0.20917117,-926.94862)" />
    <path
       inkscape:connector-curvature="0"
       style="fill:#447228;fill-opacity:0.38589214;stroke:none;stroke-width:0.73541999;stroke-miterlimit:4;stroke-dasharray:none;stroke-opacity:1"
       d="M 98.894393,-0.09995883 A 56.004342,60.313466 0 0 0 45.700715,60.06214 56.004342,60.313466 0 0 0 98.99435,120.27183 c -2.62099,-1.10732 -5.067675,-3.79542 -7.237349,-7.73952 -2.902517,-5.27644 -5.346206,-12.857636 -7.063615,-22.223688 -3.434826,-18.732345 -3.434826,-41.760605 0,-60.492932 1.717409,-9.366049 4.161098,-16.947296 7.063615,-22.2237291 2.141891,-3.8936595 4.554357,-6.5589316 7.137392,-7.69191973 z m 8.988967,0.26892669 c 2.15913,0.61463151 4.25494,1.53511164 6.26398,2.75119594 1.46025,0 3.16775,1.185e-4 4.14579,0 l 1.17808,0 A 56.004342,60.313466 0 0 0 107.88336,0.16896786 Z m -6.17828,0.0451914 c -1.852912,0 -3.697278,0.93911314 -5.473823,2.70596914 l 8.101263,0 C 104.00168,2.2539758 103.66797,1.6922729 103.3377,1.2732201 102.75147,0.5291888 102.20857,0.21415958 101.70508,0.21415958 Z m 1.96105,0.0928697 c 0.11153,0.11570029 0.2217,0.23101035 0.32845,0.36651452 0.4597,0.58330472 0.89289,1.34360272 1.30893,2.24664492 1.47634,0 2.25906,-1.181e-4 5.98076,0 l 1.01386,0 c -2.75178,-1.4446805 -5.6443,-2.3395958 -8.632,-2.61315944 z m 16.96411,3.06772684 0.23083,0.4759926 -0.0428,0 -0.12613,0 -0.49503,0 c -0.4349,1.183e-4 -1.07718,0 -1.90395,0 l -2.71549,0 c 3.46335,2.3784219 6.65472,5.611076 9.47688,9.5434936 2.76104,0 5.98162,1.19e-4 7.82755,0 1.55378,0 2.75971,1.19e-4 3.57702,0 l 0.5831,0 A 56.004342,60.313466 0 0 0 120.63011,3.3747542 Z M 95.372105,3.8507469 c -0.986017,1.1502829 -1.950722,2.5390075 -2.872568,4.2148396 -0.85605,1.5561725 -1.670008,3.3548965 -2.44418,5.3286545 10.035743,0 13.631753,1.18e-4 17.366293,0 -0.70588,-3.5650279 -1.49133,-6.5299029 -2.32993,-8.729569 -0.10996,-0.2885528 -0.21915,-0.5518253 -0.33083,-0.8139251 l -9.388785,0 z m 10.331235,0 c 0.0626,0.1551182 0.12614,0.2992709 0.18803,0.4617014 0.88579,2.3233518 1.6963,5.3918597 2.41801,9.0817927 2.57741,0 4.26552,-2.51e-4 11.39506,0 l 4.24819,0 C 120.96315,9.3524042 117.58771,6.1051294 113.93314,3.8507469 l -2.64887,0 c -3.47286,-1.299e-4 -4.23293,0 -5.58093,0 z m 31.86721,10.0408951 0.13564,0.433145 -0.0214,0 -0.0597,0 -0.238,0 c -0.20941,0 -0.51952,-1.18e-4 -0.92816,0 -0.81735,0 -2.02324,-1.18e-4 -3.57703,0 -1.69442,1.18e-4 -4.71483,0 -7.18499,0 0.62688,0.915724 1.24066,1.853275 1.82775,2.836859 2.1854,3.66142 4.08416,7.79205 5.65474,12.278043 3.71193,0 8.04548,1.18e-4 10.52878,0 2.09338,0 3.71817,1.18e-4 4.81934,0 l 1.25183,0 0.0192,0 A 56.004342,60.313466 0 0 0 137.5706,13.891619 Z m -47.874562,0.433145 c -1.578463,4.230098 -2.954602,9.310837 -4.045871,15.114902 l 23.989633,0 c -0.41607,-4.355728 -0.90972,-8.393896 -1.48271,-11.947221 -0.17908,-1.110688 -0.36903,-2.147048 -0.56165,-3.167681 l -17.899402,0 z m 18.779992,0 c 0.1821,0.975184 0.36309,1.956457 0.53311,3.010599 0.58127,3.60487 1.0795,7.693503 1.49935,12.104303 l 15.44805,0 6.29968,0 c -1.52775,-4.302965 -3.36058,-8.260852 -5.45718,-11.773481 -0.69661,-1.167107 -1.42684,-2.274966 -2.17761,-3.341421 l -4.91694,0 c -7.02528,-3.67e-4 -8.71131,0 -11.22846,0 z m 41.63674,15.664656 0.0929,0.380794 -0.0235,0 -0.081,0 -0.3213,0 c -0.28214,1.17e-4 -0.70125,0 -1.25184,0 -1.10117,1.17e-4 -2.72592,0 -4.81936,0 l -10.20985,0 c 0.7653,2.277356 1.44109,4.646742 2.0277,7.09217 0.14122,0.09311 0.29856,0.176447 0.43312,0.273694 3.15117,2.260616 4.72656,5.83494 4.72656,10.721552 0,0.227475 -0.0139,0.444384 -0.0214,0.666378 3.23446,3.7e-5 6.72884,9.6e-5 8.80572,0 2.38055,-1.21e-4 4.22635,0 5.47857,0 l 1.42555,0 0.3213,0 a 56.004342,60.313466 0 0 0 -6.58285,-19.134588 z m -64.63634,0.380794 c -1.066239,5.911412 -1.787003,12.254938 -2.168108,18.753794 l 17.713768,0 0,-14.779323 9.03895,0 c -0.10301,-1.349625 -0.21238,-2.681916 -0.33077,-3.974471 l -24.25384,0 z m 25.12485,0 c 0.11807,1.293441 0.22597,2.624727 0.32843,3.974471 l 10.23129,0 c 5.76059,0 10.19118,0.833823 13.31332,2.487013 -0.55852,-2.225268 -1.19101,-4.383044 -1.89918,-6.461484 l -6.6186,0 -15.35526,0 z m -49.778482,3.974471 13.187159,0 0,51.137507 -13.187159,0 0,-51.137507 z m 53.386472,9.555382 0,5.223941 13.19903,0 c -0.19214,-1.657813 -0.75476,-2.909211 -1.72545,-3.715056 -1.18738,-1.004713 -3.163,-1.508885 -5.92598,-1.508885 l -5.5476,0 z m 42.49113,5.264399 c -0.012,0 -0.0331,0.01219 -0.0331,0.01219 l 0.10479,0.478371 a 56.004342,60.313466 0 0 0 -0.0716,-0.48793 l 0,-0.0023 z m -73.439677,0.8901 c -0.354529,6.625705 -0.354529,13.389455 0,20.015156 l 17.761367,0 0,-20.015156 -17.761367,0 z m 30.948547,0 0,6.966029 5.5476,0 c 2.76298,0 4.7386,-0.514632 5.92598,-1.542188 1.21024,-1.027569 1.81591,-2.71728 1.81591,-5.069239 0,-0.127176 -0.0202,-0.231375 -0.0235,-0.354602 -7.09413,-2.57e-4 -10.45596,-1.27e-4 -13.26567,0 z m 26.40287,0 c -0.22431,2.663619 -1.01806,4.909921 -2.3942,6.725658 -0.0428,0.05726 -0.0919,0.110017 -0.13568,0.166607 0.0323,1.032385 0.0545,2.069426 0.0545,3.115321 0,2.392938 -0.11487,4.737207 -0.27843,7.056467 0.56649,0.857424 1.13404,1.863637 1.70401,2.951103 3.61637,6e-5 7.57085,9.4e-5 9.90762,0 l 5.47859,0 1.42559,0 0.36172,0 0.0928,0 c 0.0204,0 -0.16181,0.04993 -0.16181,0.04993 l 0.13802,0.628297 a 56.004342,60.313466 0 0 0 0.90445,-10.685866 56.004342,60.313466 0 0 0 -0.8806,-10.00757 l -0.0928,0 -0.36172,0 -1.42559,0 c -1.25221,1.17e-4 -3.09802,0 -5.47859,0 l -8.85807,0 z m -3.3676,7.841837 c -1.57465,1.605996 -3.69868,2.838301 -6.39009,3.679365 1.80392,0.411032 3.41312,1.3469 4.82884,2.808314 0.46518,0.465165 0.93425,1.038438 1.40179,1.661185 0.11891,-1.968692 0.18801,-3.961186 0.18801,-5.983115 0,-0.726158 -0.0124,-1.446254 -0.0287,-2.165749 z m -23.03527,8.234538 0,3.938781 11.14752,0 c -0.75135,-1.115205 -1.51033,-1.982746 -2.27756,-2.534616 -1.27875,-0.936228 -2.99181,-1.404165 -5.13825,-1.404165 l -3.73171,0 z m -30.900948,4.869329 c 0.381152,6.499664 1.101674,12.841886 2.168108,18.753842 l 24.25384,0 c 0.12722,-1.389347 0.24526,-2.81703 0.35457,-4.27192 l -9.06275,0 0,-14.481922 c -4.433894,0 -7.088777,0 -17.713768,0 z m 30.900948,0 0,14.481922 -3.25576,0 c -0.10882,1.455009 -0.22529,2.881623 -0.35223,4.27192 l 15.35526,0 6.6186,0 c 0.47349,-1.389823 0.91339,-2.815374 1.32085,-4.27192 l -0.74729,0 -6.23302,-12.706503 c -0.31613,-0.643708 -0.63298,-1.234419 -0.95198,-1.775419 -5.49116,-8.2e-5 -9.26339,-5.8e-5 -11.75443,0 z m 25.8436,0 7.13976,14.481922 -12.39229,0 c -0.40175,1.455363 -0.8344,2.880915 -1.3018,4.27192 3.56599,1.19e-4 7.80183,1.19e-4 10.20987,0 2.09342,-2.33e-4 3.71818,0 4.81935,0 0.5506,-2.33e-4 0.96974,0 1.25183,0 l 0.32131,0 0.0786,0 c 0.0182,0 -0.18564,0.05915 -0.18564,0.05915 l 0.0999,0.411812 a 56.004342,60.313466 0 0 0 6.65901,-19.225031 l -0.0168,0 -0.36173,0 c -0.32083,0 -0.79948,-1.19e-4 -1.42558,0 -1.25223,0 -3.09802,-1.19e-4 -5.4786,0 l -9.41732,0 z M 85.650117,90.684708 c 1.091245,5.803354 2.467517,10.885172 4.045871,15.114872 10.695202,3.3e-4 14.096482,2.2e-4 17.899402,0 0.19275,-1.02131 0.38241,-2.0586 0.56165,-3.17014 0.57299,-3.553264 1.06664,-7.589052 1.48271,-11.944732 l -23.989633,0 z m 24.858323,0 c -0.41985,4.410927 -0.91808,8.499362 -1.49935,12.104302 -0.17013,1.05477 -0.3509,2.03491 -0.53311,3.01057 2.51715,-1.1e-4 4.20317,-3.5e-4 11.22846,0 l 4.91694,0 c 0.75077,-1.0665 1.481,-2.1743 2.17761,-3.34147 2.0966,-3.512657 3.92943,-7.470486 5.45718,-11.773402 l -6.29968,0 -15.44805,0 z m 22.67113,0 c -1.57054,4.485931 -3.46933,8.616601 -5.65471,12.277962 -0.58709,0.98369 -1.20088,1.92111 -1.82776,2.83691 2.47015,0 5.49062,10e-5 7.18499,0 1.55378,-1.1e-4 2.7597,0 3.57702,0 0.40866,0 0.71882,10e-5 0.92817,0 l 0.23799,0 0.0597,0 c 0.013,0 -0.24278,0.0946 -0.24278,0.0946 l 0.12138,0.38329 a 56.004342,60.313466 0 0 0 12.28512,-15.593313 l -0.0688,0 -1.25182,0 c -1.10117,1.16e-4 -2.72592,0 -4.81935,0 -2.48327,1.16e-4 -6.81681,0 -10.52877,0 z M 90.055357,106.73016 c 0.774039,1.97325 1.588303,3.7703 2.44418,5.32623 0.921846,1.67587 1.886552,3.06688 2.872568,4.21727 l 9.388785,0 c 0.11154,-0.26216 0.22085,-0.52551 0.33083,-0.81404 0.83843,-2.19914 1.62416,-5.16548 2.32993,-8.72946 l -17.366293,0 z m 18.254023,0 c -0.72161,3.68882 -1.53238,6.75888 -2.41801,9.08174 -0.0621,0.1627 -0.12526,0.30629 -0.18803,0.46176 1.26366,0 2.0395,-1.3e-4 5.58093,0 l 2.6441,0 c 3.65627,-2.25451 7.03357,-5.50002 10.02426,-9.5435 l -4.24819,0 c -7.12952,-3.8e-4 -8.81765,0 -11.39506,0 z m 16.74514,0 c -2.82213,3.93239 -6.01351,7.16501 -9.47688,9.5435 0.85265,0 2.07488,1.1e-4 2.71549,0 0.82678,-1.3e-4 1.4691,0 1.90396,0 l 0.49503,0 0.12612,0 c 0.0284,0 -0.31177,0.19991 -0.31177,0.19991 l 0.10467,0.21649 a 56.004342,60.313466 0 0 0 16.40246,-9.9599 c -0.17382,0 -0.31041,-1.5e-4 -0.55456,0 -0.81734,0 -2.02321,-1.5e-4 -3.57702,0 l -7.82755,0 z m -28.823263,10.47407 c 1.776545,1.76684 3.620911,2.70592 5.473823,2.70592 0.50349,0 1.04639,-0.31515 1.63262,-1.05916 0.33027,-0.41903 0.66399,-0.98062 0.99482,-1.64676 l -8.101263,0 z m 9.072253,0 c -0.41584,0.90241 -0.84948,1.66343 -1.30893,2.24657 -0.10621,0.1346 -0.21733,0.24996 -0.32845,0.36401 2.98756,-0.27364 5.88032,-1.16611 8.632,-2.61058 l -1.01386,0 c -3.79514,-1.2e-4 -4.58094,0 -5.98076,0 z m 8.84383,0 c -1.91365,1.15828 -3.90644,2.04426 -5.95696,2.65828 a 56.004342,60.313466 0 0 0 11.12378,-2.65828 l -1.02103,0 -4.14579,0 z"
       id="path4346" />
    <path
       inkscape:connector-curvature="0"
       id="path4370"
       d="M 78.030892,2.8566504 125.37925,117.16569"
       style="opacity:1;fill:none;fill-rule:evenodd;stroke:#000000;stroke-width:1px;stroke-linecap:butt;stroke-linejoin:miter;stroke-opacity:1" />
    <path
       style="opacity:1;fill:none;fill-rule:evenodd;stroke:#000000;stroke-width:1px;stroke-linecap:butt;stroke-linejoin:miter;stroke-opacity:1"
       d="M 44.55055,36.336994 158.85959,83.685346"
       id="path4372"
       inkscape:connector-curvature="0" />
    <path
       inkscape:connector-curvature="0"
       id="path4374"
       d="M 57.960893,16.266995 145.44925,103.75535"
       style="opacity:1;fill:none;fill-rule:evenodd;stroke:#000000;stroke-width:1px;stroke-linecap:butt;stroke-linejoin:miter;stroke-opacity:1" />
    <path
       id="path4380"
       d="M 99.085335,3.988749 A 52.199706,56.216092 0 0 0 49.505352,60.063757 52.199706,56.216092 0 0 0 99.178501,116.18313 c -2.442933,-1.03211 -4.723404,-3.53759 -6.745681,-7.21375 -2.705336,-4.91798 -4.983014,-11.984153 -6.583752,-20.713927 -3.201482,-17.459768 -3.201482,-38.923612 0,-56.383365 1.600738,-8.729769 3.878416,-15.795987 6.583752,-20.713967 1.996381,-3.6291452 4.244957,-6.1133529 6.652515,-7.169372 z m 8.378305,0.2506572 c 2.01245,0.5728769 3.96588,1.4308246 5.83844,2.5642943 1.36103,0 2.95256,1.107e-4 3.86416,0 l 1.09804,0 A 52.199706,56.216092 0 0 0 107.46364,4.2394062 Z m -5.75856,0.042121 c -1.727037,0 -3.446105,0.8753148 -5.101961,2.5221401 l 7.550901,0 C 103.84566,6.18277 103.53461,5.6592263 103.22679,5.2686417 102.68039,4.575156 102.17436,4.2815281 101.70508,4.2815281 Z m 1.82783,0.086562 c 0.10395,0.1078402 0.20663,0.2153167 0.30614,0.3416154 0.42846,0.5436782 0.83223,1.2523256 1.21999,2.0940199 1.37605,0 2.10559,-1.103e-4 5.57446,0 l 0.945,0 C 109.01367,5.457188 106.31764,4.6230686 103.53291,4.3680894 Z m 15.81165,2.8593217 0.21516,0.4436565 -0.04,0 -0.11756,0 -0.46141,0 c -0.40535,1.099e-4 -1.00401,0 -1.77459,0 l -2.53103,0 c 3.22807,2.2168445 6.20264,5.2298886 8.83307,8.8951606 2.57347,0 5.57527,1.1e-4 7.2958,0 1.44821,0 2.57223,1.1e-4 3.33401,0 l 0.54348,0 A 52.199706,56.216092 0 0 0 119.34443,7.2274088 Z M 95.802333,7.6710654 C 94.8833,8.7432042 93.984132,10.037586 93.124911,11.59957 c -0.797895,1.450455 -1.556556,3.126984 -2.278135,4.966656 9.353974,0 12.705684,1.09e-4 16.186524,0 -0.65793,-3.322841 -1.39002,-6.086297 -2.17165,-8.1365294 -0.10249,-0.26895 -0.20426,-0.5143372 -0.30835,-0.7586312 l -8.750967,0 z m 9.629387,0 c 0.0584,0.1445802 0.11758,0.2789399 0.17527,0.4303358 0.82562,2.1655158 1.58104,5.0255648 2.25373,8.4648248 2.40231,0 3.97574,-2.36e-4 10.62095,0 l 3.95957,0 c -2.78638,-3.767257 -5.93252,-6.7939289 -9.33881,-8.8951606 l -2.46893,0 c -3.23692,-1.213e-4 -3.94535,0 -5.20178,0 z m 29.70231,9.3587716 0.12643,0.403717 -0.02,0 -0.0555,0 -0.22182,0 c -0.1952,0 -0.48424,-1.09e-4 -0.86511,0 -0.76183,0 -1.88578,-1.09e-4 -3.33402,0 -1.57932,1.11e-4 -4.39452,0 -6.69688,0 0.58428,0.853516 1.15637,1.727375 1.70357,2.644139 2.03695,3.412683 3.8067,7.262699 5.2706,11.443938 3.45976,0 7.4989,1.11e-4 9.8135,0 1.95116,0 3.46559,1.11e-4 4.49194,0 l 1.16679,0 0.0178,0 A 52.199706,56.216092 0 0 0 135.13407,17.029814 Z m -44.622209,0.403717 c -1.471231,3.942729 -2.753882,8.678309 -3.771015,14.088077 l 22.359904,0 c -0.3878,-4.059821 -0.84792,-7.82366 -1.38198,-11.13559 -0.16692,-1.035234 -0.34396,-2.001189 -0.52349,-2.952487 l -16.683419,0 z m 17.504179,0 c 0.16973,0.908937 0.33843,1.823546 0.49689,2.806075 0.54179,3.359976 1.00616,7.170848 1.39751,11.282002 l 14.39858,0 5.87171,0 c -1.42396,-4.010643 -3.13228,-7.699653 -5.08645,-10.973655 -0.64929,-1.087819 -1.32989,-2.120416 -2.02966,-3.114422 l -4.58291,0 c -6.54803,-3.41e-4 -8.11951,0 -10.46567,0 z m 38.80816,14.600485 0.0866,0.354923 -0.0221,0 -0.0754,0 -0.29947,0 c -0.26297,1.1e-4 -0.65362,0 -1.1668,0 -1.02637,1.1e-4 -2.54072,0 -4.49196,0 l -9.51624,0 c 0.71331,2.122646 1.34319,4.331068 1.88995,6.610367 0.13162,0.08678 0.27828,0.164461 0.40368,0.2551 2.9371,2.107042 4.40548,5.438546 4.40548,9.993188 0,0.212022 -0.0132,0.414195 -0.02,0.621108 3.01473,3.4e-5 6.27171,8.9e-5 8.2075,0 2.21884,-1.14e-4 3.93924,0 5.10639,0 l 1.32869,0 0.29948,0 a 52.199706,56.216092 0 0 0 -6.13559,-17.834686 z m -60.24529,0.354923 c -0.993803,5.509823 -1.665603,11.422405 -2.020818,17.479763 l 16.510388,0 0,-13.775295 8.42489,0 c -0.0959,-1.257939 -0.19795,-2.499722 -0.30829,-3.704468 l -22.60617,0 z m 23.418,0 c 0.11006,1.205573 0.21062,2.446418 0.30612,3.704468 l 9.53624,0 c 5.36923,0 9.49884,0.777177 12.40887,2.318058 -0.52058,-2.074095 -1.11009,-4.085283 -1.77015,-6.022526 l -6.16897,0 -14.31211,0 z m -46.396796,3.704468 12.291295,0 0,47.663497 -12.291295,0 0,-47.663497 z m 49.759696,8.906241 0,4.869054 12.30235,0 c -0.17909,-1.545191 -0.70348,-2.711576 -1.60826,-3.462676 -1.10668,-0.936457 -2.94812,-1.406378 -5.52338,-1.406378 l -5.17071,0 z m 39.6045,4.906762 c -0.0113,0 -0.031,0.01136 -0.031,0.01136 l 0.0977,0.445873 a 52.199706,56.216092 0 0 0 -0.0667,-0.454783 l 0,-0.0023 z m -68.450584,0.829632 c -0.330444,6.175589 -0.330444,12.479847 0,18.655433 l 16.554754,0 0,-18.655433 -16.554754,0 z m 28.846084,0 0,6.492794 5.17071,0 c 2.57526,0 4.4167,-0.47967 5.52338,-1.437419 1.12805,-0.957762 1.69257,-2.532683 1.69257,-4.724863 0,-0.118536 -0.0188,-0.215657 -0.0221,-0.330512 -6.61219,-2.38e-4 -9.74563,-1.18e-4 -12.36447,0 z m 24.60919,0 c -0.20908,2.482667 -0.94891,4.576366 -2.23155,6.268752 -0.04,0.05337 -0.0856,0.102546 -0.12646,0.155289 0.0302,0.962251 0.051,1.928842 0.051,2.903684 0,2.230374 -0.10707,4.415387 -0.25952,6.577089 0.52801,0.799175 1.05702,1.737031 1.58825,2.750619 3.3707,5.6e-5 7.05653,8.8e-5 9.23456,0 l 5.10639,0 1.32876,0 0.33713,0 0.0865,0 c 0.019,0 -0.15081,0.04655 -0.15081,0.04655 l 0.12863,0.585614 a 52.199706,56.216092 0 0 0 0.84301,-9.959926 52.199706,56.216092 0 0 0 -0.82078,-9.327708 l -0.0865,0 -0.33713,0 -1.32876,0 c -1.16713,1.07e-4 -2.88756,0 -5.10639,0 l -8.25631,0 z m -3.13883,7.309105 c -1.46767,1.496893 -3.4474,2.645482 -5.95598,3.429408 1.68137,0.38311 3.18125,1.255399 4.5008,2.617533 0.43358,0.433564 0.87079,0.967892 1.30656,1.548332 0.11083,-1.834949 0.17523,-3.692083 0.17523,-5.576653 0,-0.676828 -0.0117,-1.348003 -0.0266,-2.01862 z m -21.47036,7.675127 0,3.671201 10.3902,0 c -0.7003,-1.039443 -1.40773,-1.848048 -2.12283,-2.362427 -1.19186,-0.872625 -2.78856,-1.308774 -4.7892,-1.308774 l -3.47817,0 z m -28.801718,4.538534 c 0.355259,6.05811 1.026832,11.969476 2.020818,17.479805 l 22.60617,0 c 0.11858,-1.294963 0.2286,-2.625656 0.33048,-3.981709 l -8.44708,0 0,-13.498096 c -4.132678,0 -6.607203,0 -16.510388,0 z m 28.801718,0 0,13.498096 -3.03459,0 c -0.10144,1.356164 -0.21,2.685863 -0.32831,3.981709 l 14.31211,0 6.16897,0 c 0.44132,-1.295406 0.85134,-2.624112 1.23112,-3.981709 l -0.69653,0 -5.80958,-11.84329 c -0.29466,-0.599978 -0.58998,-1.15056 -0.88732,-1.654806 -5.11811,-7.8e-5 -8.63407,-5.5e-5 -10.95587,0 z m 24.0879,0 6.65473,13.498096 -11.55041,0 c -0.37447,1.356495 -0.77774,2.685203 -1.21338,3.981709 3.32375,1.12e-4 7.27183,1.12e-4 9.51628,0 1.9512,-2.16e-4 3.46557,0 4.49193,0 0.5132,-2.16e-4 0.90388,0 1.16679,0 l 0.29948,0 0.0732,0 c 0.0168,0 -0.17303,0.05513 -0.17303,0.05513 l 0.0931,0.383834 a 52.199706,56.216092 0 0 0 6.20665,-17.918984 l -0.0155,0 -0.33715,0 c -0.29905,0 -0.74518,-1.11e-4 -1.32874,0 -1.16716,0 -2.88757,-1.11e-4 -5.10641,0 l -8.77757,0 z M 86.740806,88.60599 c 1.01711,5.409107 2.299886,10.145698 3.771015,14.08805 9.968639,3e-4 13.138849,2e-4 16.683419,0 0.17966,-0.95192 0.35642,-1.91874 0.52349,-2.954779 0.53406,-3.311872 0.99418,-7.073492 1.38198,-11.133271 l -22.359904,0 z m 23.169594,0 c -0.39135,4.111273 -0.85572,7.921962 -1.39751,11.282009 -0.15857,0.983111 -0.32706,1.896661 -0.49689,2.806041 2.34616,-1e-4 3.91763,-3.3e-4 10.46567,0 l 4.58291,0 c 0.69977,-0.99405 1.38037,-2.02658 2.02966,-3.114471 1.95417,-3.274024 3.66249,-6.962979 5.08645,-10.973579 l -5.87171,0 -14.39858,0 z m 21.13095,0 c -1.46384,4.181182 -3.23363,8.031237 -5.27055,11.44387 -0.5472,0.91685 -1.1193,1.7906 -1.70359,2.64418 2.30234,0 5.11761,9e-5 6.69688,0 1.44822,-1e-4 2.57223,0 3.33401,0 0.38091,0 0.67,9e-5 0.86514,0 l 0.22181,0 0.0555,0 c 0.0123,0 -0.22631,0.0883 -0.22631,0.0883 l 0.11315,0.35723 a 52.199706,56.216092 0 0 0 11.45053,-14.533967 l -0.064,0 -1.16678,0 c -1.02637,1.08e-4 -2.54073,0 -4.49197,0 -2.31456,1.08e-4 -6.3537,0 -9.81349,0 z M 90.846776,103.5614 c 0.721456,1.83921 1.480403,3.51417 2.278135,4.9644 0.859221,1.56202 1.75839,2.85852 2.677422,3.93075 l 8.750967,0 c 0.10396,-0.24435 0.20584,-0.4898 0.30835,-0.75873 0.78146,-2.04973 1.51382,-4.81456 2.17165,-8.13642 l -16.186524,0 z m 17.013944,0 c -0.67259,3.43822 -1.42827,6.29972 -2.25373,8.46477 -0.0579,0.15165 -0.11675,0.2855 -0.17527,0.43038 1.17781,0 1.90095,-1.1e-4 5.20178,0 l 2.46449,0 c 3.40787,-2.10133 6.55574,-5.12636 9.34325,-8.89515 l -3.95957,0 c -6.64519,-3.5e-4 -8.21864,0 -10.62095,0 z m 15.60756,0 c -2.6304,3.66524 -5.60498,6.67827 -8.83309,8.89515 0.79475,0 1.93394,1.1e-4 2.53105,0 0.77059,-1.1e-4 1.36928,0 1.7746,0 l 0.46141,0 0.11755,0 c 0.0263,0 -0.29059,0.18633 -0.29059,0.18633 l 0.0975,0.20179 a 52.199706,56.216092 0 0 0 15.28817,-9.28327 c -0.16202,0 -0.28933,-1.4e-4 -0.51688,0 -0.76182,0 -1.88577,-1.4e-4 -3.33402,0 l -7.29579,0 z m -26.865161,9.76251 c 1.655856,1.64683 3.374924,2.52211 5.101961,2.52211 0.46928,0 0.97531,-0.29376 1.52171,-0.98721 0.30782,-0.39057 0.61888,-0.914 0.92723,-1.5349 l -7.550901,0 z m 8.455921,0 c -0.38758,0.84113 -0.79176,1.55043 -1.21999,2.09395 -0.099,0.12548 -0.20257,0.23299 -0.30614,0.33928 2.78459,-0.25503 5.48086,-1.08688 8.04559,-2.43323 l -0.945,0 c -3.53731,-1.1e-4 -4.26972,0 -5.57446,0 z m 8.24304,0 c -1.78365,1.0796 -3.64105,1.9054 -5.55227,2.4777 a 52.199706,56.216092 0 0 0 10.36808,-2.4777 l -0.95165,0 -3.86416,0 z"
       style="fill:#447228;fill-opacity:0.38589214;stroke:none;stroke-width:0.73541999;stroke-miterlimit:4;stroke-dasharray:none;stroke-opacity:1"
       inkscape:connector-curvature="0" />
  </g>
  <g
     inkscape:label="Calque 1"
     inkscape:groupmode="layer"
     id="layer1"
     transform="translate(0.20917117,-926.94862)"
     style="display:inline">
    <text
       xml:space="preserve"
       style="font-style:normal;font-variant:normal;font-weight:bold;font-stretch:normal;font-size:19.96599579px;line-height:120.00000477%;font-family:Arial;-inkscape-font-specification:Arial;text-align:start;letter-spacing:0px;word-spacing:0px;text-anchor:start;display:inline;fill:#595959;fill-opacity:1;stroke:none;stroke-width:1px;stroke-linecap:butt;stroke-linejoin:miter;stroke-opacity:1;"
       x="301.73544"
       y="994.13232"
       id="text4209-9"
       sodipodi:linespacing="120%"
       transform="scale(0.9726334,1.0281366)"><tspan
         sodipodi:role="line"
         id="tspan4211-4"
         x="301.48526"
         y="994.13232"
         style="font-size:9.98299789px;line-height:120.00000477%;text-align:end;letter-spacing:-0.25017425px;text-anchor:end;fill:#595959;fill-opacity:1;">Groupe InfraRouge de</tspan><tspan
         sodipodi:role="line"
         x="301.48526"
         y="1006.1119"
         style="font-size:9.98299789px;line-height:120.00000477%;text-align:end;letter-spacing:-0.25017425px;text-anchor:end;fill:#595959;fill-opacity:1;"
         id="tspan4213-6">Physique Atmosphérique &amp; Solaire</tspan></text>
    <g
       id="g4556"
       inkscape:label="WireframeSphere"
       transform="matrix(0.57451146,0,0,0.6187159,164.73482,1132.9185)"
       style="fill:#2e5e83;fill-opacity:1;stroke:#ffffff;stroke-width:1.2335037;stroke-miterlimit:4;stroke-dasharray:none;stroke-opacity:1">
      <g
         id="g4560"
         inkscape:label="Lines of Longitude"
         style="fill:#2e5e83;fill-opacity:1;stroke:#ffffff;stroke-width:1.2335037;stroke-miterlimit:4;stroke-dasharray:none;stroke-opacity:1" />
      <g
         id="g4562"
         inkscape:label="Lines of Latitude"
         style="fill:#2e5e83;fill-opacity:1;stroke:#ffffff;stroke-width:1.2335037;stroke-miterlimit:4;stroke-dasharray:none;stroke-opacity:1" />
    </g>
    <path
       inkscape:connector-curvature="0"
       id="path7019"
       style="font-style:normal;font-variant:normal;font-weight:bold;font-stretch:normal;font-size:medium;line-height:100%;font-family:'Droid Arabic Kufi';-inkscape-font-specification:'Droid Arabic Kufi Bold';text-align:start;letter-spacing:10.0778265px;word-spacing:0px;text-anchor:start;fill:#ffffff;fill-opacity:0.07843137;stroke:none;stroke-width:1px;stroke-linecap:butt;stroke-linejoin:miter;stroke-opacity:1"
       d="m 67.945658,965.90967 10.822115,0 0,41.96733 -10.822115,0 0,-41.96733 z" />
    <path
       inkscape:connector-curvature="0"
       id="path7021"
       style="font-style:normal;font-variant:normal;font-weight:bold;font-stretch:normal;font-size:medium;line-height:100%;font-family:'Droid Arabic Kufi';-inkscape-font-specification:'Droid Arabic Kufi Bold';text-align:start;letter-spacing:10.0778265px;word-spacing:0px;text-anchor:start;fill:#ffffff;fill-opacity:0.07843137;stroke:none;stroke-width:1px;stroke-linecap:butt;stroke-linejoin:miter;stroke-opacity:1"
       d="m 116.3107,984.5181 q 3.40124,0 4.86293,-1.26492 1.4898,-1.26493 1.4898,-4.1602 0,-2.86715 -1.4898,-4.10397 -1.46169,-1.23681 -4.86293,-1.23681 l -4.55372,0 0,10.7659 4.55372,0 z m -4.55372,7.4771 0,15.8818 -10.82213,0 0,-41.96733 16.52833,0 q 8.29228,0 12.14327,2.78283 3.8791,2.78283 3.8791,8.79825 0,4.16019 -2.02388,6.83058 -1.99577,2.6704 -6.04353,3.93532 2.22066,0.50597 3.96344,2.30497 1.77088,1.77089 3.56988,5.39701 l 5.87487,11.91837 -11.52485,0 -5.11591,-10.42857 q -1.54602,-3.14826 -3.14826,-4.30074 -1.57413,-1.15249 -4.21641,-1.15249 l -3.06392,0 z" />
    <path
       inkscape:connector-curvature="0"
       id="path7023"
       style="font-style:normal;font-variant:normal;font-weight:bold;font-stretch:normal;font-size:medium;line-height:100%;font-family:'Droid Arabic Kufi';-inkscape-font-specification:'Droid Arabic Kufi Bold';text-align:start;letter-spacing:10.0778265px;word-spacing:0px;text-anchor:start;fill:#595959;fill-opacity:1;stroke:none;stroke-width:1px;stroke-linecap:butt;stroke-linejoin:miter;stroke-opacity:1"
       d="m 156.7489,965.90967 17.96191,0 q 8.01118,0 12.2838,3.5699 4.30075,3.54178 4.30075,10.11938 0,6.60571 -4.30075,10.17561 -4.27262,3.54178 -12.2838,3.54178 l -7.1398,0 0,14.56066 -10.82211,0 0,-41.96733 z m 10.82211,7.84253 0,11.72162 5.98731,0 q 3.14826,0 4.86292,-1.51791 1.71468,-1.54602 1.71468,-4.35696 0,-2.81094 -1.71468,-4.32885 -1.71466,-1.5179 -4.86292,-1.5179 l -5.98731,0 z" />
    <path
       inkscape:connector-curvature="0"
       id="path7025"
       style="font-style:normal;font-variant:normal;font-weight:bold;font-stretch:normal;font-size:medium;line-height:100%;font-family:'Droid Arabic Kufi';-inkscape-font-specification:'Droid Arabic Kufi Bold';text-align:start;letter-spacing:10.0778265px;word-spacing:0px;text-anchor:start;fill:#595959;fill-opacity:1;stroke:none;stroke-width:1px;stroke-linecap:butt;stroke-linejoin:miter;stroke-opacity:1"
       d="m 230.60916,1000.2313 -16.92186,0 -2.6704,7.6457 -10.87833,0 15.5445,-41.96733 12.90221,0 15.5445,41.96733 -10.87834,0 -2.64228,-7.6457 z m -14.22336,-7.78635 11.49674,0 -5.73432,-16.69699 -5.76242,16.69699 z" />
    <path
       inkscape:connector-curvature="0"
       id="path7027"
       style="font-style:normal;font-variant:normal;font-weight:bold;font-stretch:normal;font-size:medium;line-height:100%;font-family:'Droid Arabic Kufi';-inkscape-font-specification:'Droid Arabic Kufi Bold';text-align:start;letter-spacing:10.0778265px;word-spacing:0px;text-anchor:start;fill:#595959;fill-opacity:1;stroke:none;stroke-width:1px;stroke-linecap:butt;stroke-linejoin:miter;stroke-opacity:1"
       d="m 290.38663,967.23081 0,8.88258 q -3.45746,-1.54602 -6.74627,-2.33308 -3.28879,-0.78707 -6.21216,-0.78707 -3.87911,0 -5.73432,1.06816 -1.85523,1.06816 -1.85523,3.31691 0,1.68656 1.23682,2.64228 1.26492,0.92762 4.55372,1.60224 l 4.60994,0.92761 q 6.99925,1.40547 9.95073,4.27263 2.95149,2.86716 2.95149,8.15173 0,6.943 -4.13208,10.3443 -4.10397,3.3731 -12.56491,3.3731 -3.99153,0 -8.01118,-0.759 -4.01965,-0.7589 -8.03929,-2.2487 l 0,-9.13557 q 4.01964,2.13631 7.75819,3.23258 3.76667,1.06819 7.25223,1.06819 3.54179,0 5.42512,-1.18063 1.88333,-1.1806 1.88333,-3.37313 0,-1.96766 -1.29304,-3.03582 -1.26492,-1.06815 -5.08779,-1.91143 l -4.18831,-0.92762 q -6.2965,-1.34925 -9.21988,-4.30073 -2.89527,-2.95149 -2.89527,-7.95497 0,-6.26839 4.04775,-9.64152 4.04776,-3.37313 11.6373,-3.37313 3.45746,0 7.11168,0.53408 3.65423,0.50597 7.56143,1.54601 z" />
    <path
       inkscape:connector-curvature="0"
       style="fill:url(#radialGradient5119);fill-opacity:1;stroke:none;stroke-width:0.73541999;stroke-miterlimit:4;stroke-dasharray:none;stroke-opacity:1"
       d="m 99.189267,937.64198 a 45.960917,49.497272 0 0 0 -43.654297,49.37305 45.960917,49.497272 0 0 0 43.736328,49.41207 c -2.15096,-0.9087 -4.158873,-3.1147 -5.939453,-6.3515 -2.382,-4.3302 -4.387455,-10.5519 -5.796875,-18.2383 -2.81885,-15.373 -2.81885,-34.27154 0,-49.64454 1.40942,-7.6864 3.414875,-13.90808 5.796875,-18.23828 1.75778,-3.1954 3.737611,-5.3827 5.857422,-6.3125 z m 7.376953,0.2207 c 1.77191,0.5044 3.49188,1.25981 5.14063,2.25781 1.1984,0 2.59967,10e-5 3.40234,0 l 0.9668,0 a 45.960917,49.497272 0 0 0 -9.50977,-2.25781 z m -5.07031,0.0371 c -1.520621,0 -3.03424,0.7707 -4.49219,2.2207 l 6.64844,0 c -0.27152,-0.54669 -0.54539,-1.00766 -0.81641,-1.35156 -0.48111,-0.6106 -0.92666,-0.86914 -1.33984,-0.86914 z m 1.60937,0.0762 c 0.0915,0.095 0.18195,0.18958 0.26953,0.30078 0.37727,0.4787 0.73277,1.10265 1.07422,1.84375 1.21156,0 1.85393,-10e-5 4.90821,0 l 0.83203,0 c -2.25828,-1.1856 -4.6321,-1.92003 -7.08399,-2.14453 z m 13.92188,2.51758 0.18945,0.39063 -0.0352,0 -0.10351,0 -0.40625,0 c -0.35691,10e-5 -0.884,0 -1.5625,0 l -2.22852,0 c 2.84225,1.95189 5.46132,4.60483 7.77735,7.83203 2.2659,0 4.90894,10e-5 6.42383,0 1.27514,0 2.2648,10e-5 2.93554,0 l 0.47852,0 a 45.960917,49.497272 0 0 0 -13.46875,-8.22266 z m -20.728519,0.39063 c -0.80919,0.944 -1.600891,2.08368 -2.357421,3.45898 -0.70253,1.2771 -1.37052,2.75325 -2.00586,4.37305 8.23601,0 11.18714,10e-5 14.25195,0 -0.57929,-2.9257 -1.22389,-5.35887 -1.9121,-7.16407 -0.0902,-0.2368 -0.17985,-0.45286 -0.27149,-0.66796 l -7.705079,0 z m 8.478519,0 c 0.0514,0.1273 0.1035,0.2456 0.15429,0.3789 0.72694,1.9067 1.39208,4.42493 1.98438,7.45313 2.1152,0 3.50058,-2e-4 9.35156,0 l 3.48633,0 c -2.45334,-3.317 -5.22347,-5.98193 -8.22266,-7.83203 l -2.17382,0 c -2.85008,-1.1e-4 -3.47383,0 -4.58008,0 z m 26.15234,8.24023 0.11133,0.35547 -0.0176,0 -0.0488,0 -0.19531,0 c -0.17186,0 -0.42634,-10e-5 -0.76172,0 -0.67076,0 -1.66039,-10e-5 -2.93554,0 -1.39053,1e-4 -3.86932,0 -5.89649,0 0.51446,0.7515 1.01817,1.52092 1.5,2.32812 1.79346,3.0048 3.35172,6.39468 4.64063,10.07618 3.04628,0 6.60269,10e-5 8.64062,0 1.718,0 3.05139,10e-5 3.95508,0 l 1.02734,0 0.0156,0 A 45.960917,49.497272 0 0 0 130.9295,949.1244 Z m -39.289062,0.35547 c -1.29539,3.4715 -2.424742,7.6411 -3.320312,12.4043 l 19.687504,0 c -0.34145,-3.5746 -0.74657,-6.88859 -1.2168,-9.80469 -0.14699,-0.9115 -0.30287,-1.76201 -0.46094,-2.59961 l -14.689452,0 z m 15.412112,0 c 0.14945,0.8003 0.29798,1.6056 0.4375,2.4707 0.47704,2.9584 0.88593,6.3138 1.23047,9.9336 l 12.67773,0 5.16992,0 c -1.25376,-3.5313 -2.75791,-6.77941 -4.47851,-9.66211 -0.57168,-0.9578 -1.17098,-1.86699 -1.78711,-2.74219 l -4.03516,0 c -5.76542,-3e-4 -7.14909,0 -9.21484,0 z m 34.16992,12.85547 0.0762,0.3125 -0.0195,0 -0.0664,0 -0.26368,0 c -0.23154,10e-5 -0.57549,0 -1.02734,0 -0.9037,10e-5 -2.23708,0 -3.95508,0 l -8.3789,0 c 0.62804,1.86895 1.18267,3.81343 1.66406,5.82031 0.11591,0.0764 0.24503,0.14481 0.35547,0.22461 2.58606,1.85522 3.8789,4.78855 3.8789,8.79883 0,0.18668 -0.0115,0.36469 -0.0176,0.54687 2.65442,3e-5 5.52215,8e-5 7.22657,0 1.95364,-1e-4 3.46845,0 4.49609,0 l 1.16992,0 0.26367,0 a 45.960917,49.497272 0 0 0 -5.40234,-15.70312 z m -53.044922,0.3125 c -0.87503,4.8513 -1.466537,10.05722 -1.779297,15.39062 l 14.537109,0 0,-12.1289 7.41797,0 c -0.0845,-1.10759 -0.1743,-2.20096 -0.27148,-3.26172 l -19.904302,0 z m 20.619142,0 c 0.0969,1.06149 0.18543,2.15403 0.26953,3.26172 l 8.39649,0 c 4.72749,0 8.36356,0.68429 10.92578,2.04101 -0.45834,-1.82621 -0.97742,-3.59702 -1.5586,-5.30273 l -5.43164,0 -12.60156,0 z m -40.851564,3.26172 10.822265,0 0,41.96682 -10.822265,0 0,-41.96682 z m 43.812504,7.84179 0,4.28711 10.83203,0 c -0.15769,-1.36051 -0.61942,-2.38749 -1.41602,-3.04882 -0.97446,-0.82454 -2.59579,-1.23829 -4.86328,-1.23829 l -4.55273,0 z m 34.87109,4.32032 c -0.01,0 -0.0273,0.01 -0.0273,0.01 l 0.0859,0.39258 a 45.960917,49.497272 0 0 0 -0.0586,-0.40043 l 0,-0.002 z m -60.269532,0.73047 c -0.29095,5.4375 -0.29095,10.98828 0,16.42578 l 14.576172,0 0,-16.42578 -14.576172,0 z m 25.398442,0 0,5.71679 4.55273,0 c 2.26749,0 3.88882,-0.42234 4.86328,-1.26562 0.9932,-0.84329 1.49024,-2.22998 1.49024,-4.16016 0,-0.10437 -0.0166,-0.18988 -0.0195,-0.29101 -5.82196,-2.1e-4 -8.58089,-1.1e-4 -10.88672,0 z m 21.66797,0 c -0.18407,2.18594 -0.8355,4.02941 -1.96485,5.51953 -0.0352,0.047 -0.0752,0.0903 -0.11133,0.13672 0.0266,0.84725 0.0449,1.69831 0.0449,2.55664 0,1.96381 -0.0943,3.88767 -0.22852,5.79101 0.46492,0.70366 0.93066,1.52943 1.39844,2.42188 2.96783,5e-5 6.21315,8e-5 8.13086,0 l 4.49609,0 1.16992,0 0.29688,0 0.0762,0 c 0.0167,0 -0.13281,0.041 -0.13281,0.041 l 0.11328,0.51562 a 45.960917,49.497272 0 0 0 0.74219,-8.76953 45.960917,49.497272 0 0 0 -0.72266,-8.21289 l -0.0762,0 -0.29688,0 -1.16992,0 c -1.02765,10e-5 -2.54244,0 -4.49609,0 l -7.26953,0 z m -2.76368,6.43554 c -1.29225,1.31799 -3.03537,2.3293 -5.24414,3.01953 1.48044,0.33732 2.80104,1.10536 3.96289,2.30469 0.38175,0.38175 0.76669,0.85221 1.15039,1.36328 0.0976,-1.61564 0.1543,-3.25082 0.1543,-4.91015 0,-0.59593 -0.0104,-1.18689 -0.0234,-1.77735 z m -18.90429,6.75781 0,3.23243 9.14843,0 c -0.61662,-0.91522 -1.23949,-1.62718 -1.86914,-2.08008 -1.04942,-0.76833 -2.45527,-1.15235 -4.21679,-1.15235 l -3.0625,0 z m -25.359379,3.9961 c 0.3128,5.33399 0.904107,10.53889 1.779297,15.39059 l 19.904302,0 c 0.10445,-1.1401 0.20128,-2.3118 0.29101,-3.5058 l -7.4375,0 0,-11.88479 c -3.638755,0 -5.81753,0 -14.537109,0 z m 25.359379,0 0,11.88479 -2.67188,0 c -0.0893,1.1941 -0.1849,2.3649 -0.28906,3.5058 l 12.60156,0 5.43164,0 c 0.38859,-1.1405 0.74962,-2.3104 1.08399,-3.5058 l -0.61328,0 -5.11524,-10.42776 c -0.25942,-0.52827 -0.51945,-1.01305 -0.78125,-1.45703 -4.50639,-7e-5 -7.60216,-5e-5 -9.64648,0 z m 21.20898,0 5.85938,11.88479 -10.16993,0 c -0.3297,1.1944 -0.68475,2.3643 -1.06835,3.5058 2.92649,10e-5 6.4027,10e-5 8.3789,0 1.718,-10e-5 3.05139,0 3.95508,0 0.45185,-10e-5 0.79582,0 1.02734,0 l 0.26368,0 0.0645,0 c 0.0147,0 -0.15235,0.049 -0.15235,0.049 l 0.082,0.3379 a 45.960917,49.497272 0 0 0 5.46484,-15.77729 l -0.0137,0 -0.29688,0 c -0.26329,0 -0.65609,-10e-5 -1.16992,0 -1.02765,0 -2.54244,-10e-5 -4.49609,0 l -7.72852,0 z m -44.646484,16.15429 c 0.89555,4.7627 2.025012,8.9331 3.320312,12.4043 8.777212,3e-4 11.568532,2e-4 14.689452,0 0.15819,-0.8381 0.31384,-1.6894 0.46094,-2.6016 0.47023,-2.9161 0.87535,-6.2281 1.2168,-9.8027 l -19.687504,0 z m 20.400394,0 c -0.34454,3.6199 -0.75343,6.9752 -1.23047,9.9336 -0.1396,0.8657 -0.28796,1.67 -0.4375,2.4707 2.06575,-10e-5 3.44941,-3e-4 9.21484,0 l 4.03516,0 c 0.61613,-0.8752 1.21543,-1.7844 1.78711,-2.7422 1.7206,-2.8827 3.22475,-6.1308 4.47851,-9.6621 l -5.16992,0 -12.67773,0 z m 18.60547,0 c -1.28891,3.6815 -2.84717,7.0714 -4.64063,10.0762 -0.48183,0.8072 -0.98554,1.5766 -1.5,2.3281 2.02717,0 4.50596,1e-4 5.89649,0 1.27514,-10e-5 2.2648,0 2.93554,0 0.33537,0 0.5899,1e-4 0.76172,0 l 0.19531,0 0.0488,0 c 0.0109,0 -0.19922,0.078 -0.19922,0.078 l 0.0996,0.3145 a 45.960917,49.497272 0 0 0 10.08203,-12.7969 l -0.0566,0 -1.02734,0 c -0.9037,10e-5 -2.23708,0 -3.95508,0 -2.03794,10e-5 -5.59434,0 -8.64062,0 z m -35.39063,13.168 c 0.63523,1.6194 1.30347,3.0942 2.00586,4.3711 0.75653,1.3753 1.548232,2.5169 2.357421,3.4609 l 7.705079,0 c 0.0916,-0.2151 0.18124,-0.4312 0.27149,-0.668 0.68806,-1.8048 1.3329,-4.2391 1.9121,-7.164 l -14.25195,0 z m 14.98047,0 c -0.5922,3.0273 -1.25759,5.5468 -1.98438,7.4531 -0.0509,0.1335 -0.10279,0.2514 -0.15429,0.3789 1.03702,0 1.67374,-10e-5 4.58008,0 l 2.16992,0 c 3.00058,-1.8502 5.77223,-4.5137 8.22656,-7.832 l -3.48633,0 c -5.85096,-3e-4 -7.23636,0 -9.35156,0 z m 13.74219,0 c -2.31603,3.2272 -4.9351,5.8801 -7.77735,7.832 0.69974,0 1.70277,10e-5 2.22852,0 0.67849,-10e-5 1.20562,0 1.5625,0 l 0.40625,0 0.10351,0 c 0.0231,0 -0.25585,0.1641 -0.25585,0.1641 l 0.0859,0.1777 a 45.960917,49.497272 0 0 0 13.46094,-8.1738 c -0.14263,0 -0.25471,-1e-4 -0.45508,0 -0.67076,0 -1.66039,-1e-4 -2.93554,0 l -6.42383,0 z m -23.6543,8.5957 c 1.45795,1.45 2.971569,2.2207 4.49219,2.2207 0.41318,0 0.85873,-0.2586 1.33984,-0.8692 0.27102,-0.3439 0.5449,-0.8048 0.81641,-1.3515 l -6.64844,0 z m 7.44531,0 c -0.34129,0.7406 -0.69715,1.3652 -1.07422,1.8437 -0.0871,0.1105 -0.17835,0.2052 -0.26953,0.2988 2.45179,-0.2246 4.8258,-0.957 7.08399,-2.1425 l -0.83203,0 c -3.11454,-10e-5 -3.75944,0 -4.90821,0 z m 7.25782,0 c -1.57045,0.9506 -3.20587,1.6777 -4.88868,2.1816 a 45.960917,49.497272 0 0 0 9.12891,-2.1816 l -0.83789,0 -3.40234,0 z"
       id="path4352" />
    <path
       inkscape:connector-curvature="0"
       id="path4382"
       d="m 101.49577,1039.0812 c 25.57501,0 52.7477,-20.4615 52.7477,-52.06628 0,-32.8546 -27.17269,-52.0663 -52.7477,-52.0663 m 0,0.7637 c 25.19202,0 47.51899,24.1722 47.51899,51.3026 0,27.13038 -22.32697,51.30258 -47.51899,51.30258"
       style="color:#000000;font-style:normal;font-variant:normal;font-weight:normal;font-stretch:normal;font-size:medium;line-height:normal;font-family:sans-serif;text-indent:0;text-align:start;text-decoration:none;text-decoration-line:none;text-decoration-style:solid;text-decoration-color:#000000;letter-spacing:normal;word-spacing:normal;text-transform:none;direction:ltr;block-progression:tb;writing-mode:lr-tb;baseline-shift:baseline;text-anchor:start;white-space:normal;clip-rule:nonzero;display:inline;overflow:visible;visibility:visible;opacity:1;isolation:auto;mix-blend-mode:normal;color-interpolation:sRGB;color-interpolation-filters:linearRGB;solid-color:#000000;solid-opacity:1;fill:url(#radialGradient4621);fill-opacity:1;fill-rule:nonzero;stroke:none;stroke-width:1.2335037;stroke-linecap:butt;stroke-linejoin:miter;stroke-miterlimit:4;stroke-dasharray:none;stroke-dashoffset:0;stroke-opacity:1;color-rendering:auto;image-rendering:auto;shape-rendering:auto;text-rendering:auto;enable-background:accumulate"
       sodipodi:nodetypes="csccsc" />
    <path
       inkscape:connector-curvature="0"
       id="path7017"
       style="font-style:normal;font-variant:normal;font-weight:bold;font-stretch:normal;font-size:medium;line-height:100%;font-family:'Droid Arabic Kufi';-inkscape-font-specification:'Droid Arabic Kufi Bold';text-align:start;letter-spacing:10.0778265px;word-spacing:0px;text-anchor:start;fill:#595959;fill-opacity:1;stroke:none;stroke-width:1px;stroke-linecap:butt;stroke-linejoin:miter;stroke-opacity:1"
       d="m 46.931061,1004.7569 q -4.047754,1.9676 -8.404712,2.9515 -4.356958,0.9838 -8.99501,0.9838 -10.484808,0 -16.612659,-5.8468 -6.1278512,-5.87483 -6.1278512,-15.90989 0,-10.1475 6.2402882,-15.96614 6.240288,-5.81865 17.090519,-5.81865 4.188302,0 8.011181,0.78706 3.850989,0.78707 7.252227,2.33308 l 0,8.68581 q -3.513676,-1.99577 -6.999242,-2.9796 -3.457457,-0.98383 -6.943024,-0.98383 -6.465163,0 -9.978839,3.62612 -3.485566,3.598 -3.485566,10.31615 0,6.66193 3.373128,10.28804 3.373129,3.62615 9.585308,3.62615 1.686564,0 3.120145,-0.1968 1.461688,-0.2249 2.614174,-0.67463 l 0,-8.15172 -6.60571,0 0,-7.25223 16.865643,0 0,20.18258 z" />
    <path
       style="opacity:1;fill:url(#linearGradient5502);fill-opacity:1.0;stroke:none;stroke-width:0.49971637;stroke-linecap:butt;stroke-miterlimit:4;stroke-dasharray:none;stroke-dashoffset:0;stroke-opacity:1"
       d="m 54.531857,980.6072 -5.600447,6.29886 5.716736,7.05602 c -0.660467,-4.8887 -0.662244,-8.2811 -0.116289,-13.35488 z"
       id="path7056"
       inkscape:connector-curvature="0"
       sodipodi:nodetypes="cccc" />
    <path
       sodipodi:nodetypes="cccc"
       inkscape:connector-curvature="0"
       id="path4334"
       d="m 59.892858,962.74084 -10.772291,2.4405 6.28212,10.41108 c 1.030399,-4.8243 2.261778,-8.26077 4.490171,-12.85158 z"
       style="opacity:1;fill:url(#linearGradient4336);fill-opacity:1.0;stroke:none;stroke-width:0.49971637;stroke-linecap:butt;stroke-miterlimit:4;stroke-dasharray:none;stroke-dashoffset:0;stroke-opacity:1" />
    <path
       style="opacity:1;fill:url(#linearGradient4340);fill-opacity:1;stroke:none;stroke-width:0.49971637;stroke-linecap:butt;stroke-miterlimit:4;stroke-dasharray:none;stroke-dashoffset:0;stroke-opacity:1"
       d="m 88.285026,938.05637 -8.026651,-2.4454 -3.960069,8.3061 c 4.00308,-2.7092 7.153129,-4.21313 11.98672,-5.8607 z"
       id="path4338"
       inkscape:connector-curvature="0"
       sodipodi:nodetypes="cccc" />
    <path
       sodipodi:nodetypes="cccc"
       inkscape:connector-curvature="0"
       id="path4376"
       d="m 71.5191,947.61112 -10.82104,-1.67707 2.113798,11.80378 c 2.722385,-4.1139 4.955087,-6.668 8.707242,-10.12671 z"
       style="opacity:1;fill:url(#linearGradient4378);fill-opacity:1.0;stroke:none;stroke-width:0.49971637;stroke-linecap:butt;stroke-miterlimit:4;stroke-dasharray:none;stroke-dashoffset:0;stroke-opacity:1" />
    <g
       id="g4406"
       transform="matrix(1,0,0,-1,0,1974.0784)">
      <path
         sodipodi:nodetypes="cccc"
         inkscape:connector-curvature="0"
         id="path4400"
         d="m 59.892858,962.74084 -10.772291,2.4405 6.28212,10.41108 c 1.030399,-4.8243 2.261778,-8.26077 4.490171,-12.85158 z"
         style="opacity:1;fill:url(#linearGradient4411);fill-opacity:1.0;stroke:none;stroke-width:0.49971637;stroke-linecap:butt;stroke-miterlimit:4;stroke-dasharray:none;stroke-dashoffset:0;stroke-opacity:1" />
      <path
         style="opacity:1;fill:url(#linearGradient4413);fill-opacity:1.0;stroke:none;stroke-width:0.49971637;stroke-linecap:butt;stroke-miterlimit:4;stroke-dasharray:none;stroke-dashoffset:0;stroke-opacity:1"
         d="m 88.285026,938.05637 -8.026651,-2.4454 -3.960069,8.3061 c 4.00308,-2.7092 7.153129,-4.21313 11.98672,-5.8607 z"
         id="path4402"
         inkscape:connector-curvature="0"
         sodipodi:nodetypes="cccc" />
      <path
         sodipodi:nodetypes="cccc"
         inkscape:connector-curvature="0"
         id="path4404"
         d="m 71.5191,947.61112 -10.82104,-1.67707 2.113798,11.80378 c 2.722385,-4.1139 4.955087,-6.668 8.707242,-10.12671 z"
         style="opacity:1;fill:url(#linearGradient4415);fill-opacity:1.0;stroke:none;stroke-width:0.49971637;stroke-linecap:butt;stroke-miterlimit:4;stroke-dasharray:none;stroke-dashoffset:0;stroke-opacity:1" />
    </g>
    <path
       id="path4420"
       d="m 99.189267,937.64198 c -24.433946,1.32225 -43.623726,23.02591 -43.654297,49.37305 0.01346,26.39477 19.256101,48.13457 43.736328,49.41207 -2.15096,-0.9087 -4.158873,-3.1147 -5.939453,-6.3515 -2.382,-4.3302 -4.387455,-10.5519 -5.796875,-18.2383 -2.81885,-15.373 -2.81885,-34.27154 0,-49.64454 1.40942,-7.6864 3.414875,-13.90808 5.796875,-18.23828 1.75778,-3.1954 3.737611,-5.3827 5.857422,-6.3125 z m -31.244141,28.2676 10.822265,0 0,41.96682 -10.822265,0 z"
       style="fill:url(#radialGradient5117);fill-opacity:1;stroke:none;stroke-width:0.73541999;stroke-miterlimit:4;stroke-dasharray:none;stroke-opacity:1"
       inkscape:connector-curvature="0"
       sodipodi:nodetypes="ccccssscccccc" />
  </g>
</svg>
