<?xml version="1.0" encoding="UTF-8" standalone="no"?>
<!-- Created with Inkscape (http://www.inkscape.org/) -->

<svg
   xmlns:dc="http://purl.org/dc/elements/1.1/"
   xmlns:cc="http://creativecommons.org/ns#"
   xmlns:rdf="http://www.w3.org/1999/02/22-rdf-syntax-ns#"
   xmlns:svg="http://www.w3.org/2000/svg"
   xmlns="http://www.w3.org/2000/svg"
   xmlns:xlink="http://www.w3.org/1999/xlink"
   xmlns:sodipodi="http://sodipodi.sourceforge.net/DTD/sodipodi-0.dtd"
   xmlns:inkscape="http://www.inkscape.org/namespaces/inkscape"
   width="204.92523"
   height="114.82708"
   viewBox="0 0 204.92523 114.82708"
   id="svg2"
   version="1.1"
   inkscape:version="0.91 r13725"
   sodipodi:docname="girpas_proposal02d_rev01.svg"
   inkscape:export-filename="/mnt/hgfs/Aldebaran/Image/logos/girpas/girpas_proposal02d_rev01.png"
   inkscape:export-xdpi="300"
   inkscape:export-ydpi="300">
  <sodipodi:namedview
     id="base"
     pagecolor="#ffffff"
     bordercolor="#666666"
     borderopacity="1.0"
     inkscape:pageopacity="0"
     inkscape:pageshadow="2"
     inkscape:zoom="1.4142136"
     inkscape:cx="103.8916"
     inkscape:cy="28.611106"
     inkscape:document-units="px"
     inkscape:current-layer="layer1"
     showgrid="false"
     inkscape:snap-center="false"
     inkscape:window-width="1440"
     inkscape:window-height="841"
     inkscape:window-x="0"
     inkscape:window-y="26"
     inkscape:window-maximized="1"
     units="px"
     inkscape:object-nodes="false"
     fit-margin-top="5"
     fit-margin-bottom="5"
     fit-margin-left="8"
     fit-margin-right="8" />
  <defs
     id="defs4">
    <radialGradient
       inkscape:collect="always"
       xlink:href="#linearGradient4615"
       id="radialGradient4621"
       cx="209.68158"
       cy="1128.5444"
       fx="209.68158"
       fy="1128.5444"
       r="49.127625"
       gradientTransform="matrix(-0.82480413,-0.84222968,0.81326076,-0.79643456,-652.81021,2065.8456)"
       gradientUnits="userSpaceOnUse" />
    <linearGradient
       inkscape:collect="always"
       id="linearGradient4615">
      <stop
         style="stop-color:#2e5e83;stop-opacity:1"
         offset="0"
         id="stop4617" />
      <stop
         style="stop-color:#2e5e83;stop-opacity:0"
         offset="1"
         id="stop4619" />
    </linearGradient>
    <linearGradient
       inkscape:collect="always"
       xlink:href="#linearGradient4615"
       id="linearGradient5486"
       x1="50.936871"
       y1="927.20404"
       x2="84.862999"
       y2="964.98499"
       gradientUnits="userSpaceOnUse"
       gradientTransform="translate(-42.91253,2.62652)" />
    <linearGradient
       inkscape:collect="always"
       xlink:href="#linearGradient4615"
       id="linearGradient5478"
       x1="22.510057"
       y1="945.13605"
       x2="86.666023"
       y2="978.6015"
       gradientUnits="userSpaceOnUse"
       gradientTransform="translate(-42.91253,2.62652)" />
    <linearGradient
       inkscape:collect="always"
       xlink:href="#linearGradient4615"
       id="linearGradient5518"
       x1="41.445274"
       y1="1056.4366"
       x2="91.82972"
       y2="1003.1871"
       gradientUnits="userSpaceOnUse"
       gradientTransform="translate(-42.91253,2.62652)" />
    <linearGradient
       inkscape:collect="always"
       xlink:href="#linearGradient4615"
       id="linearGradient5510"
       x1="42.728466"
       y1="1016.7242"
       x2="78.834946"
       y2="1000.3745"
       gradientUnits="userSpaceOnUse"
       gradientTransform="translate(-42.91253,2.62652)" />
    <linearGradient
       inkscape:collect="always"
       xlink:href="#linearGradient4615"
       id="linearGradient5526"
       x1="82.700172"
       y1="1051.1749"
       x2="92.605759"
       y2="1021.5688"
       gradientUnits="userSpaceOnUse"
       gradientTransform="translate(-42.91253,2.62652)" />
    <linearGradient
       inkscape:collect="always"
       xlink:href="#linearGradient4615"
       id="linearGradient5502"
       x1="40.832977"
       y1="987.26056"
       x2="68.602615"
       y2="987.48151"
       gradientUnits="userSpaceOnUse"
       gradientTransform="translate(-42.91253,2.62652)" />
    <linearGradient
       inkscape:collect="always"
       xlink:href="#linearGradient4615"
       id="linearGradient5494"
       x1="78.567459"
       y1="920.00714"
       x2="92.131294"
       y2="956.24152"
       gradientUnits="userSpaceOnUse"
       gradientTransform="translate(-42.91253,2.62652)" />
  </defs>
  <metadata
     id="metadata7">
    <rdf:RDF>
      <cc:Work
         rdf:about="">
        <dc:format>image/svg+xml</dc:format>
        <dc:type
           rdf:resource="http://purl.org/dc/dcmitype/StillImage" />
        <dc:title></dc:title>
      </cc:Work>
    </rdf:RDF>
  </metadata>
  <g
     transform="translate(7.45745,-929.94862)"
     id="layer1"
     inkscape:groupmode="layer"
     inkscape:label="Calque 1">
    <g
       id="g4947"
       transform="translate(0,-2.6265)">
      <path
         id="path4611"
         transform="translate(0,922.36216)"
         d="M 56.277344,17.90625 A 45.960917,49.497272 0 0 0 12.623047,67.279297 45.960917,49.497272 0 0 0 56.359375,116.69141 c -2.15096,-0.9087 -4.158873,-3.11477 -5.939453,-6.35157 -2.382,-4.3302 -4.387455,-10.551873 -5.796875,-18.238278 C 43.666175,86.883066 43.045413,81.25514 42.738281,75.5 l 45.886719,0 0,-0.0078 c 3.274277,7.8e-5 6.998189,9e-5 9.158203,0 l 4.496097,0 1.16992,0 0.29687,0 0.0762,0 c 0.0167,0 -0.13282,0.04102 -0.13282,0.04102 l 0.11328,0.515625 a 45.960917,49.497272 0 0 0 0.74219,-8.769531 45.960917,49.497272 0 0 0 -0.72265,-8.212891 l -0.0762,0 -0.004,0 0,-0.02344 -61.005862,0 c 0.307557,-5.7496 0.930727,-11.372288 1.886719,-16.585938 1.40942,-7.6864 3.414875,-13.908081 5.796875,-18.238281 1.75778,-3.1954 3.737612,-5.3827 5.857422,-6.3125 z m 7.376953,0.220703 c 1.77191,0.5044 3.491875,1.259813 5.140625,2.257813 1.1984,0 2.599674,10e-5 3.402344,0 l 0.966796,0 a 45.960917,49.497272 0 0 0 -9.509765,-2.257813 z m -5.070313,0.03711 c -1.52062,0 -3.034237,0.770704 -4.492187,2.220704 l 6.648437,0 c -0.27152,-0.5467 -0.545386,-1.007663 -0.816406,-1.351563 -0.48111,-0.6106 -0.926664,-0.869141 -1.339844,-0.869141 z m 1.609375,0.07617 c 0.09154,0.095 0.181952,0.189572 0.269532,0.300782 0.37727,0.4787 0.732768,1.10265 1.074218,1.84375 1.21156,0 1.85393,-1e-4 4.908203,0 l 0.832032,0 c -2.25828,-1.18561 -4.632095,-1.920032 -7.083985,-2.144532 z m 13.921875,2.517578 0.189454,0.390626 -0.03516,0 -0.103515,0 -0.40625,0 c -0.35691,9.9e-5 -0.884,0 -1.5625,0 l -2.228516,0 c 2.84225,1.9519 5.461314,4.604831 7.777344,7.832031 2.265901,0 4.908938,1e-4 6.423828,0 1.27514,0 2.264806,1e-4 2.935547,0 l 0.478515,0 a 45.960917,49.497272 0 0 0 -13.46875,-8.222657 z m -20.728515,0.390626 c -0.80919,0.943999 -1.600892,2.083684 -2.357422,3.458984 -0.70253,1.2771 -1.370522,2.753247 -2.005859,4.373047 8.236007,0 11.187143,1e-4 14.251953,0 -0.57929,-2.9257 -1.22388,-5.358863 -1.91211,-7.164063 -0.09024,-0.2368 -0.179844,-0.452868 -0.271484,-0.667968 l -7.705078,0 z m 8.478515,0 c 0.05141,0.127299 0.103497,0.245606 0.154297,0.378906 0.72694,1.9067 1.392075,4.424925 1.984375,7.453125 2.1152,0 3.500583,-2e-4 9.351563,0 l 3.486328,0 c -2.45334,-3.317 -5.223466,-5.981932 -8.222656,-7.832031 l -2.173829,0 c -2.850079,-10e-5 -3.473828,0 -4.580078,0 z m 26.152344,8.240234 0.111328,0.355469 -0.01758,0 -0.04883,0 -0.195312,0 c -0.171864,0 -0.426339,-1e-4 -0.761719,0 -0.67076,0 -1.660397,-1e-4 -2.935547,0 -1.39053,10e-5 -3.869315,0 -5.896484,0 0.514459,0.7515 1.018169,1.520925 1.5,2.328125 1.793458,3.0048 3.351715,6.394671 4.640624,10.076172 3.046281,0 6.602694,9.8e-5 8.640626,0 1.717999,0 3.051388,9.8e-5 3.955078,0 l 1.027343,0 0.01563,0 A 45.960917,49.497272 0 0 0 88.017578,29.388672 Z M 48.728516,29.74414 c -1.29539,3.4715 -2.424743,7.641097 -3.320313,12.404297 l 19.6875,0 c -0.34145,-3.574602 -0.746567,-6.888588 -1.216797,-9.804688 -0.14699,-0.9115 -0.302867,-1.762009 -0.460937,-2.599609 l -14.689453,0 z m 15.412109,0 c 0.14945,0.8003 0.29798,1.605603 0.4375,2.470703 0.47704,2.9584 0.885929,6.313794 1.230469,9.933594 l 12.677734,0 5.169922,0 c -1.25376,-3.531301 -2.757917,-6.77941 -4.478516,-9.66211 -0.571681,-0.9578 -1.170979,-1.866987 -1.787109,-2.742187 l -4.035156,0 c -5.765419,-3e-4 -7.149094,0 -9.214844,0 z m 34.169922,12.855468 0.07617,0.3125 -0.01953,0 -0.06641,0 -0.263672,0 c -0.23154,10e-5 -0.575493,0 -1.027343,0 -0.9037,10e-5 -2.237081,0 -3.955078,0 l -8.378907,0 c 1.58356,4.7124 2.718446,9.893525 3.316407,15.390625 3.448097,0 7.481755,10e-5 9.791015,0 1.953641,-1e-4 3.468461,0 4.496101,0 l 1.16992,0 0.26367,0 A 45.960917,49.497272 0 0 0 98.310547,42.599609 Z m -53.044922,0.3125 c -0.875029,4.8513 -1.466536,10.057225 -1.779297,15.390625 l 22.585938,0 c -0.16315,-5.5078 -0.471485,-10.687725 -0.902344,-15.390625 l -19.904297,0 z m 20.619141,0 c 0.42988,4.7087 0.735998,9.888725 0.898437,15.390625 l 14.433594,0 6.060547,0 c -0.606261,-5.5096 -1.758815,-10.693125 -3.359375,-15.390625 l -5.431641,0 -12.601562,0 z m 37.832034,15.42383 c -0.01,0 -0.0274,0.0098 -0.0274,0.0098 l 0.0859,0.392578 a 45.960917,49.497272 0 0 0 -0.0586,-0.40039 l 0,-0.002 z m -78.781253,2.183593 c 1.03304,0 2.021935,0.0786 2.964844,0.236328 0.949842,0.157667 1.844681,0.391366 2.683593,0.701172 l 0,2.611328 c -0.866644,-0.399873 -1.730132,-0.699337 -2.589843,-0.896484 -0.852778,-0.19708 -1.708649,-0.294922 -2.56836,-0.294922 -1.594625,0 -2.826715,0.363337 -3.693359,1.089844 -0.859711,0.720913 -1.289063,1.753549 -1.289063,3.099609 0,1.334827 0.416069,2.36529 1.248047,3.091797 0.831978,0.726567 2.014648,1.089844 3.546875,1.089844 0.415989,0 0.800706,-0.01893 1.154297,-0.05859 0.360524,-0.04507 0.682538,-0.112998 0.966797,-0.203125 l 0,-2.449219 -2.443359,0 0,-2.179687 6.240234,0 0,6.064453 0,0.002 c -0.998374,0.394227 -2.036689,0.689632 -3.111328,0.886719 -1.074639,0.197147 -2.182202,0.294922 -3.326172,0.294922 -2.586066,0 -4.635056,-0.586359 -6.146484,-1.757813 -1.511427,-1.177093 -2.267578,-2.77057 -2.267578,-4.78125 0,-2.033146 0.769434,-3.632968 2.308593,-4.798828 1.53916,-1.16586 3.646069,-1.748047 6.322266,-1.748047 z m 69.564453,0 c 0.852777,0 1.729553,0.05314 2.630859,0.160157 0.901314,0.101365 1.835123,0.256463 2.798829,0.464843 l 0,2.669922 c -0.852778,-0.309747 -1.684917,-0.543445 -2.496094,-0.701172 -0.811178,-0.157666 -1.57778,-0.236328 -2.298828,-0.236328 -0.956775,0 -1.663503,0.106286 -2.121094,0.320313 -0.457584,0.213966 -0.6875,0.54746 -0.6875,0.998046 0,0.337935 0.151975,0.601476 0.457031,0.792969 0.311994,0.185847 0.87437,0.347229 1.685547,0.482422 L 96.173828,65.75 c 1.726361,0.281567 2.953662,0.70871 3.681641,1.283203 0.727971,0.574487 1.091801,1.390372 1.091801,2.449219 0,1.39112 -0.50818,2.427928 -1.527348,3.109375 -1.012235,0.675853 -2.563506,1.013672 -4.650391,1.013672 -0.984504,0 -1.971447,-0.07644 -2.96289,-0.228516 -0.991436,-0.15202 -1.983166,-0.377268 -2.97461,-0.675781 l 0,-2.744141 c 0.991444,0.427994 1.948988,0.751023 2.871094,0.970703 0.929045,0.214027 1.821933,0.320313 2.681641,0.320313 0.873576,0 1.54329,-0.116956 2.007812,-0.353516 0.464522,-0.23656 0.697266,-0.574378 0.697266,-1.013672 0,-0.394226 -0.159591,-0.700029 -0.478516,-0.914062 -0.311994,-0.214027 -0.939906,-0.405259 -1.882812,-0.574219 l -1.548828,-0.277344 c -1.553027,-0.270326 -2.691062,-0.701595 -3.41211,-1.292968 -0.714111,-0.591374 -1.070312,-1.388085 -1.070312,-2.390625 0,-1.255934 0.499673,-2.222585 1.498046,-2.898438 C 91.193686,60.85735 92.628049,60.519531 94.5,60.519531 Z m -59.830078,0.228516 4.003906,0 0,12.613281 -4.003906,0 0,-12.613281 z m 7.945312,0 6.115235,0 c 2.04528,0 3.542345,0.278337 4.492187,0.835937 0.956775,0.557547 1.435547,1.439258 1.435547,2.644532 0,0.833526 -0.248859,1.517667 -0.748047,2.052734 -0.492254,0.535073 -1.237954,0.930147 -2.236328,1.183594 0.547719,0.101366 1.036942,0.330953 1.466797,0.691406 0.436789,0.354813 0.876588,0.89654 1.320313,1.623047 l 2.173828,3.582031 -4.263672,0 -1.892578,-3.134766 C 50.097192,69.595771 49.707689,69.164507 49.3125,68.933594 48.924243,68.702687 48.405622,68.587891 47.753906,68.587891 l -1.134765,0 0,4.773437 -4.003907,0 0,-12.613281 z m 16.390625,0 6.644532,0 c 1.97595,0 3.491087,0.357001 4.544921,1.072265 1.060773,0.709627 1.591797,1.723076 1.591797,3.041016 0,1.323527 -0.531022,2.343327 -1.591797,3.058594 -1.053832,0.709627 -2.568971,1.064453 -4.544921,1.064453 l -2.640625,0 0,4.376953 -4.003907,0 0,-12.613281 z m 17.544922,0 4.773438,0 5.75,12.613281 -4.023438,0 -1.921875,-4.490234 0.796875,1.884765 -5.976562,0 0.863281,-2.033203 -0.002,0 -1.986328,4.638672 -4.025391,0 5.751953,-12.613281 z m 0.261719,7.974609 4.251953,0 -2.123047,-5.017578 -2.128906,5.017578 z m -30.193359,-5.617187 0,3.234375 1.685547,0 c 0.838912,0 1.438304,-0.125462 1.798828,-0.378906 0.367457,-0.253447 0.550781,-0.67188 0.550781,-1.251954 0,-0.574486 -0.183324,-0.984621 -0.550781,-1.232422 -0.360524,-0.24786 -0.959919,-0.371093 -1.798828,-0.371093 l -1.685547,0 z m 16.390625,0 0,3.521484 2.214843,0 c 0.776514,0 1.375906,-0.150918 1.798829,-0.455078 0.422921,-0.309747 0.634765,-0.74736 0.634765,-1.310547 0,-0.563193 -0.211846,-0.996621 -0.634765,-1.300781 -0.422923,-0.30416 -1.022315,-0.455078 -1.798829,-0.455078 l -2.214843,0 z m -19.523438,13.15039 c 0.312801,5.33408 0.904107,10.538925 1.779297,15.390625 l 19.904297,0 c 0.43086,-4.7029 0.739194,-9.882745 0.902344,-15.390625 -4.79732,1e-4 -9.038548,0 -22.585938,0 z m 23.296875,0 c -0.162439,5.50188 -0.468566,10.682025 -0.898437,15.390625 l 12.601562,0 5.431641,0 c 1.60056,-4.6975 2.753115,-9.880945 3.359375,-15.390625 l -6.060547,0 c -9.0399,-3e-4 -11.262024,0 -14.433594,0 z m 21.208985,0 c -0.597983,5.49688 -1.732927,10.678525 -3.316407,15.390625 2.92651,1e-4 6.402708,1e-4 8.378907,0 1.717999,-1e-4 3.051388,0 3.955078,0 0.45185,-1e-4 0.795823,0 1.027343,0 l 0.263672,0 0.06445,0 c 0.0147,0 -0.152343,0.04883 -0.152343,0.04883 l 0.08203,0.337891 a 45.960917,49.497272 0 0 0 5.464852,-15.777344 l -0.0137,0 -0.29687,0 c -0.26329,0 -0.6561,-10e-5 -1.16992,0 -1.02766,0 -2.542451,-10e-5 -4.496101,0 l -9.791015,0 z M 45.408203,92.410156 c 0.89555,4.7627 2.025013,8.933094 3.320313,12.404294 8.77721,3e-4 11.568533,2e-4 14.689453,0 0.15819,-0.8381 0.313837,-1.68936 0.460937,-2.60156 0.47023,-2.916094 0.875347,-6.228134 1.216797,-9.802734 l -19.6875,0 z m 20.400391,0 c -0.34454,3.6199 -0.753429,6.975194 -1.230469,9.933594 -0.1396,0.8657 -0.28796,1.67 -0.4375,2.4707 2.06575,-10e-5 3.449414,-3e-4 9.214844,0 l 4.035156,0 c 0.61613,-0.8752 1.215429,-1.78438 1.787109,-2.74218 1.7206,-2.882724 3.224756,-6.130814 4.478516,-9.662114 l -5.169922,0 -12.677734,0 z m 18.605468,0 c -1.28891,3.6815 -2.847168,7.071362 -4.640624,10.076174 -0.481831,0.8072 -0.985543,1.57662 -1.5,2.32812 2.027169,0 4.505954,1e-4 5.896484,0 1.27514,-10e-5 2.264807,0 2.935547,0 0.335371,0 0.589894,1e-4 0.761719,0 l 0.195312,0 0.04883,0 c 0.01087,0 -0.199219,0.0781 -0.199219,0.0781 l 0.09961,0.31445 A 45.960917,49.497272 0 0 0 98.09375,92.410156 l -0.05664,0 -1.027343,0 c -0.9037,1e-4 -2.23708,0 -3.955078,0 -2.037937,1e-4 -5.594342,0 -8.640626,0 z M 49.023438,105.57812 c 0.635229,1.61944 1.303469,3.0942 2.005859,4.3711 0.75653,1.3753 1.548232,2.51694 2.357422,3.46094 l 7.705078,0 c 0.09164,-0.2151 0.181245,-0.43117 0.271484,-0.66797 0.68808,-1.8048 1.33291,-4.23915 1.91211,-7.16407 l -14.251953,0 z m 14.980468,0 c -0.5922,3.0273 -1.257594,5.54683 -1.984375,7.45313 -0.0509,0.1335 -0.102797,0.25141 -0.154297,0.37891 1.03702,0 1.673744,-1e-4 4.580078,0 l 2.169922,0 c 3.00058,-1.8502 5.772233,-4.51373 8.226563,-7.83204 l -3.486328,0 c -5.85096,-2.8e-4 -7.236363,0 -9.351563,0 z m 13.742188,0 c -2.31603,3.22721 -4.935094,5.88014 -7.777344,7.83204 0.69974,0 1.702766,10e-5 2.228516,0 0.67849,-1e-4 1.20562,0 1.5625,0 l 0.40625,0 0.103515,0 c 0.02308,0 -0.255859,0.16406 -0.255859,0.16406 l 0.08594,0.17773 a 45.960917,49.497272 0 0 0 13.460938,-8.17383 c -0.142629,0 -0.254709,-9e-5 -0.455078,0 -0.67076,0 -1.660397,-9e-5 -2.935547,0 l -6.423828,0 z m -23.654297,8.59571 c 1.457949,1.45 2.971567,2.2207 4.492187,2.2207 0.413179,0 0.858734,-0.25864 1.339844,-0.86914 0.27102,-0.3439 0.544896,-0.80486 0.816406,-1.35156 l -6.648437,0 z m 7.445312,0 c -0.34129,0.7406 -0.697148,1.36525 -1.074218,1.84375 -0.08706,0.1105 -0.178352,0.20523 -0.269532,0.29883 2.45179,-0.2246 4.825794,-0.95708 7.083985,-2.14258 l -0.832032,0 c -3.114539,-10e-5 -3.759433,0 -4.908203,0 z m 7.257813,0 c -1.570451,0.9506 -3.205863,1.67774 -4.888672,2.18164 a 45.960917,49.497272 0 0 0 9.128906,-2.18164 l -0.83789,0 -3.402344,0 z"
         style="fill:#2e5e83;fill-opacity:1;stroke:none;stroke-width:0.73541999;stroke-miterlimit:4;stroke-dasharray:none;stroke-opacity:1"
         inkscape:connector-curvature="0" />
      <path
         sodipodi:nodetypes="csccsc"
         style="color:#000000;font-style:normal;font-variant:normal;font-weight:normal;font-stretch:normal;font-size:medium;line-height:normal;font-family:sans-serif;text-indent:0;text-align:start;text-decoration:none;text-decoration-line:none;text-decoration-style:solid;text-decoration-color:#000000;letter-spacing:normal;word-spacing:normal;text-transform:none;direction:ltr;block-progression:tb;writing-mode:lr-tb;baseline-shift:baseline;text-anchor:start;white-space:normal;clip-rule:nonzero;display:inline;overflow:visible;visibility:visible;opacity:1;isolation:auto;mix-blend-mode:normal;color-interpolation:sRGB;color-interpolation-filters:linearRGB;solid-color:#000000;solid-opacity:1;fill:url(#radialGradient4621);fill-opacity:1;fill-rule:nonzero;stroke:none;stroke-width:1.2335037;stroke-linecap:butt;stroke-linejoin:miter;stroke-miterlimit:4;stroke-dasharray:none;stroke-dashoffset:0;stroke-opacity:1;color-rendering:auto;image-rendering:auto;shape-rendering:auto;text-rendering:auto;enable-background:accumulate"
         d="m 58.58324,1041.7077 c 25.57501,0 52.7477,-20.4615 52.7477,-52.06628 0,-32.8546 -27.17269,-52.0663 -52.7477,-52.0663 m 0,0.7637 c 25.19202,0 47.51899,24.1722 47.51899,51.3026 0,27.13038 -22.32697,51.30258 -47.51899,51.30258"
         id="path4382"
         inkscape:connector-curvature="0" />
      <path
         inkscape:connector-curvature="0"
         id="path7065"
         d="m 21.28083,944.68542 0.62891,10.9434 0.921871,-0.8379 c 2.018976,-2.2014 4.225385,-4.1922 6.578125,-5.9707 l 1.935546,-1.7578 -10.064452,-2.377 z"
         style="opacity:1;fill:url(#linearGradient5486);fill-opacity:1;stroke:none;stroke-width:0.49971637;stroke-linecap:butt;stroke-miterlimit:4;stroke-dasharray:none;stroke-dashoffset:0;stroke-opacity:1" />
      <path
         inkscape:connector-curvature="0"
         id="path7069"
         d="m 0.54255,958.31242 12.77734,11.7343 c 1.13027,-2.8677 2.49463,-5.5744 4.07227,-8.0996 l -16.84961,-3.6347 z"
         style="opacity:1;fill:url(#linearGradient5478);fill-opacity:1;stroke:none;stroke-width:0.49971637;stroke-linecap:butt;stroke-miterlimit:4;stroke-dasharray:none;stroke-dashoffset:0;stroke-opacity:1" />
      <path
         inkscape:connector-curvature="0"
         id="path7050"
         d="m 22.83747,1025.1268 -7.48828,15.9395 16.189452,-8.4727 -0.384766,-0.3711 c -3.011195,-2.0286 -5.807434,-4.3961 -8.316406,-7.0957 z"
         style="opacity:1;fill:url(#linearGradient5518);fill-opacity:1;stroke:none;stroke-width:0.49971637;stroke-linecap:butt;stroke-miterlimit:4;stroke-dasharray:none;stroke-dashoffset:0;stroke-opacity:1" />
      <path
         inkscape:connector-curvature="0"
         id="path7052"
         d="m 12.6695,1008.1874 -5.5625,7.625 9.81445,1.4453 c -1.68555,-2.8021 -3.11714,-5.83 -4.25195,-9.0703 z"
         style="opacity:1;fill:url(#linearGradient5510);fill-opacity:1;stroke:none;stroke-width:0.49971637;stroke-linecap:butt;stroke-miterlimit:4;stroke-dasharray:none;stroke-dashoffset:0;stroke-opacity:1" />
      <path
         inkscape:connector-curvature="0"
         id="path7054"
         d="m 38.903876,1036.4784 4.529297,5.9238 7.806641,-2.1855 -1.183594,-0.3633 c -3.85182,-0.6888 -7.59494,-1.8229 -11.152344,-3.375 z"
         style="opacity:1;fill:url(#linearGradient5526);fill-opacity:1;stroke:none;stroke-width:0.49971637;stroke-linecap:butt;stroke-miterlimit:4;stroke-dasharray:none;stroke-dashoffset:0;stroke-opacity:1" />
      <path
         inkscape:connector-curvature="0"
         id="path7056"
         d="m 10.12263,982.61122 -4.02735,6.9355 4.12891,8.5 c -0.37029,-2.6365 -0.57031,-5.3722 -0.57031,-8.2109 0,-2.4803 0.17014,-4.8852 0.46875,-7.2246 z"
         style="opacity:1;fill:url(#linearGradient5502);fill-opacity:1;stroke:none;stroke-width:0.49971637;stroke-linecap:butt;stroke-miterlimit:4;stroke-dasharray:none;stroke-dashoffset:0;stroke-opacity:1" />
      <path
         inkscape:connector-curvature="0"
         id="path7048"
         d="m 41.483954,938.05262 -3.177734,5.3965 c 2.757479,-1.2849 5.634962,-2.3054 8.587891,-3.0606 l 0.115234,-0.043 -5.525391,-2.2929 z"
         style="opacity:1;fill:url(#linearGradient5494);fill-opacity:1;stroke:none;stroke-width:0.49971637;stroke-linecap:butt;stroke-miterlimit:4;stroke-dasharray:none;stroke-dashoffset:0;stroke-opacity:1" />
      <g
         transform="matrix(1.1095099,0,0,0.90129886,-43.238907,0.375)"
         style="font-style:normal;font-variant:normal;font-weight:bold;font-stretch:normal;font-size:19.19644547px;line-height:100%;font-family:Arial;-inkscape-font-specification:Arial;text-align:start;letter-spacing:0px;word-spacing:0px;writing-mode:tb-rl;text-anchor:start;fill:#ffffff;fill-opacity:0.07843137;stroke:none;stroke-width:1px;stroke-linecap:butt;stroke-linejoin:miter;stroke-opacity:1"
         id="text4171">
        <path
           d="m 67.05141,1103.308 q -1.34975,0.6561 -2.802606,0.9841 -1.452856,0.3281 -2.999444,0.3281 -3.496228,0 -5.5396,-1.9496 -2.043371,-1.959 -2.043371,-5.3053 0,-3.3837 2.080864,-5.324 2.080865,-1.9403 5.698945,-1.9403 1.396617,0 2.67138,0.2625 1.284138,0.2624 2.418303,0.778 l 0,2.8963 q -1.171658,-0.6655 -2.333943,-0.9936 -1.152912,-0.328 -2.315196,-0.328 -2.155851,0 -3.327509,1.2091 -1.162285,1.1998 -1.162285,3.44 0,2.2215 1.124792,3.4306 1.124791,1.2092 3.196283,1.2092 0.562396,0 1.040432,-0.066 0.48741,-0.075 0.871714,-0.225 l 0,-2.7182 -2.202717,0 0,-2.4183 5.623958,0 0,6.73 z"
           style="font-style:normal;font-variant:normal;font-weight:bold;font-stretch:normal;font-family:'Droid Arabic Naskh';-inkscape-font-specification:'Droid Arabic Naskh Bold';letter-spacing:0px;writing-mode:lr-tb;fill:#ffffff;fill-opacity:0.07843137"
           id="path4217"
           inkscape:connector-curvature="0" />
        <path
           d="m 70.219574,1090.3541 3.608707,0 0,13.9943 -3.608707,0 0,-13.9943 z"
           style="font-style:normal;font-variant:normal;font-weight:bold;font-stretch:normal;font-family:'Droid Arabic Naskh';-inkscape-font-specification:'Droid Arabic Naskh Bold';letter-spacing:0px;writing-mode:lr-tb;fill:#ffffff;fill-opacity:0.07843137"
           id="path4219"
           inkscape:connector-curvature="0" />
        <path
           d="m 82.507923,1096.5592 q 1.134165,0 1.621575,-0.4218 0.496783,-0.4218 0.496783,-1.3872 0,-0.9561 -0.496783,-1.3685 -0.48741,-0.4125 -1.621575,-0.4125 l -1.518468,0 0,3.59 1.518468,0 z m -1.518468,2.4933 0,5.2959 -3.608707,0 0,-13.9943 5.511479,0 q 2.765113,0 4.049251,0.928 1.29351,0.9279 1.29351,2.9338 0,1.3872 -0.674875,2.2777 -0.665502,0.8905 -2.015252,1.3123 0.740488,0.1687 1.32163,0.7686 0.590516,0.5905 1.190405,1.7996 l 1.959012,3.9743 -3.843038,0 -1.705934,-3.4775 q -0.51553,-1.0498 -1.049806,-1.4341 -0.524903,-0.3843 -1.40599,-0.3843 l -1.021685,0 z"
           style="font-style:normal;font-variant:normal;font-weight:bold;font-stretch:normal;font-family:'Droid Arabic Naskh';-inkscape-font-specification:'Droid Arabic Naskh Bold';letter-spacing:0px;writing-mode:lr-tb;fill:#ffffff;fill-opacity:0.07843137"
           id="path4221"
           inkscape:connector-curvature="0" />
        <path
           d="m 92.153012,1090.3541 5.989516,0 q 2.671382,0 4.096112,1.1904 1.43411,1.181 1.43411,3.3744 0,2.2027 -1.43411,3.3931 -1.42473,1.181 -4.096112,1.181 l -2.380809,0 0,4.8554 -3.608707,0 0,-13.9943 z m 3.608707,2.6151 0,3.9087 1.996505,0 q 1.049806,0 1.621575,-0.5062 0.571769,-0.5155 0.571769,-1.4528 0,-0.9373 -0.571769,-1.4435 -0.571769,-0.5062 -1.621575,-0.5062 l -1.996505,0 z"
           style="font-style:normal;font-variant:normal;font-weight:bold;font-stretch:normal;font-family:'Droid Arabic Naskh';-inkscape-font-specification:'Droid Arabic Naskh Bold';letter-spacing:0px;writing-mode:lr-tb;fill:#ffffff;fill-opacity:0.07843137"
           id="path4223"
           inkscape:connector-curvature="0" />
        <path
           d="m 112.03371,1099.2025 -3.83367,0 -1.79029,5.1459 -3.62746,0 5.18342,-13.9943 4.30233,0 5.18341,13.9943 -3.62745,0 z m -4.61039,2.2556 5.38711,0 -2.68887,-7.8234 z"
           style="font-style:normal;font-variant:normal;font-weight:bold;font-stretch:normal;font-family:'Droid Arabic Naskh';-inkscape-font-specification:'Droid Arabic Naskh Bold';letter-spacing:0px;writing-mode:lr-tb;fill:#ffffff;fill-opacity:0.07843137"
           id="path4225"
           inkscape:connector-curvature="0"
           sodipodi:nodetypes="ccccccccccccc" />
        <path
           d="m 129.03681,1090.7946 0,2.962 q -1.15291,-0.5155 -2.24958,-0.778 -1.09667,-0.2624 -2.07149,-0.2624 -1.29351,0 -1.91215,0.3562 -0.61863,0.3561 -0.61863,1.106 0,0.5624 0.41242,0.8811 0.4218,0.3093 1.51847,0.5343 l 1.53721,0.3093 q 2.33395,0.4686 3.31814,1.4247 0.98419,0.9561 0.98419,2.7183 0,2.3152 -1.37787,3.4493 -1.36849,1.1248 -4.18985,1.1248 -1.331,0 -2.67138,-0.2531 -1.34037,-0.253 -2.68075,-0.7498 l 0,-3.0463 q 1.34038,0.7123 2.58702,1.0779 1.25602,0.3562 2.4183,0.3562 1.18103,0 1.80904,-0.3937 0.62801,-0.3937 0.62801,-1.1248 0,-0.6561 -0.43117,-1.0123 -0.4218,-0.3562 -1.69656,-0.6374 l -1.39662,-0.3093 q -2.09961,-0.4499 -3.07443,-1.4341 -0.96544,-0.9842 -0.96544,-2.6527 0,-2.0902 1.34975,-3.215 1.34975,-1.1248 3.88053,-1.1248 1.15291,0 2.37143,0.1781 1.21853,0.1687 2.52141,0.5155 z"
           style="font-style:normal;font-variant:normal;font-weight:bold;font-stretch:normal;font-family:'Droid Arabic Naskh';-inkscape-font-specification:'Droid Arabic Naskh Bold';letter-spacing:0px;writing-mode:lr-tb;fill:#ffffff;fill-opacity:0.07843137"
           id="path4227"
           inkscape:connector-curvature="0" />
      </g>
    </g>
    <flowRoot
       style="font-style:normal;font-variant:normal;font-weight:bold;font-stretch:normal;font-size:25px;line-height:100%;font-family:Arial;-inkscape-font-specification:Arial;text-align:start;letter-spacing:20px;word-spacing:0px;writing-mode:tb-rl;text-anchor:start;fill:#000000;fill-opacity:1;stroke:none;stroke-width:1px;stroke-linecap:butt;stroke-linejoin:miter;stroke-opacity:1"
       id="flowRoot4175"
       xml:space="preserve"><flowRegion
         id="flowRegion4177"><rect
           y="158.5"
           x="12.5"
           height="166"
           width="5"
           id="rect4179" /></flowRegion><flowPara
         id="flowPara4181" /></flowRoot>    <flowRoot
       style="font-style:normal;font-variant:normal;font-weight:bold;font-stretch:normal;font-size:25px;line-height:100%;font-family:Arial;-inkscape-font-specification:Arial;text-align:start;letter-spacing:20px;word-spacing:0px;writing-mode:tb-rl;text-anchor:start;fill:#000000;fill-opacity:1;stroke:none;stroke-width:1px;stroke-linecap:butt;stroke-linejoin:miter;stroke-opacity:1"
       id="flowRoot4183"
       xml:space="preserve"><flowRegion
         id="flowRegion4185"><rect
           y="113.33683"
           x="112"
           height="164.66318"
           width="5.9590697"
           id="rect4187" /></flowRegion><flowPara
         id="flowPara4189" /></flowRoot>    <g
       id="g4398"
       transform="matrix(1,0,0,1.1,5,-101.72122)">
      <text
         xml:space="preserve"
         style="font-style:normal;font-variant:normal;font-weight:bold;font-stretch:normal;font-size:18.56230927px;line-height:160.00000238%;font-family:Arial;-inkscape-font-specification:Arial;text-align:start;letter-spacing:0px;word-spacing:0px;text-anchor:start;fill:#2e5e83;fill-opacity:1;stroke:none;stroke-width:1px;stroke-linecap:butt;stroke-linejoin:miter;stroke-opacity:1"
         x="116.36352"
         y="921.47028"
         id="text4309"
         sodipodi:linespacing="160%"
         transform="scale(0.95828054,1.0435357)"><tspan
           sodipodi:role="line"
           id="tspan4311"
           x="116.36352"
           y="921.47028"
           style="font-size:9.28115463px;line-height:120.00000477%;text-align:start;letter-spacing:0.83353758px;text-anchor:start;fill:#2e5e83;fill-opacity:1"
           dx="0">I<tspan
   style="line-height:160.00000238%;letter-spacing:0.83353758px"
   id="tspan4313">nfraRed</tspan></tspan></text>
      <text
         xml:space="preserve"
         style="font-style:normal;font-variant:normal;font-weight:bold;font-stretch:normal;font-size:18.56230927px;line-height:160.00000238%;font-family:Arial;-inkscape-font-specification:Arial;text-align:start;letter-spacing:0px;word-spacing:0px;text-anchor:start;fill:#2e5e83;fill-opacity:1;stroke:none;stroke-width:1px;stroke-linecap:butt;stroke-linejoin:miter;stroke-opacity:1"
         x="116.60371"
         y="936.32025"
         id="text4315"
         sodipodi:linespacing="160%"
         transform="scale(0.95828054,1.0435357)"><tspan
           sodipodi:role="line"
           x="116.60371"
           y="936.32025"
           style="font-size:9.28115463px;line-height:160.00000238%;text-align:start;letter-spacing:0.83353758px;text-anchor:start;fill:#2e5e83;fill-opacity:1"
           id="tspan4317">Group of</tspan></text>
      <text
         xml:space="preserve"
         style="font-style:normal;font-variant:normal;font-weight:bold;font-stretch:normal;font-size:18.56230927px;line-height:160.00000238%;font-family:Arial;-inkscape-font-specification:Arial;text-align:start;letter-spacing:0px;word-spacing:0px;text-anchor:start;fill:#2e5e83;fill-opacity:1;stroke:none;stroke-width:1px;stroke-linecap:butt;stroke-linejoin:miter;stroke-opacity:1"
         x="116.75326"
         y="951.16998"
         id="text4319"
         sodipodi:linespacing="160%"
         transform="scale(0.95828054,1.0435357)"><tspan
           sodipodi:role="line"
           x="116.75326"
           y="951.16998"
           style="font-size:9.28115463px;line-height:160.00000238%;text-align:start;letter-spacing:0.83353758px;text-anchor:start;fill:#2e5e83;fill-opacity:1"
           id="tspan4321">Atmospheric &amp;</tspan></text>
      <text
         xml:space="preserve"
         style="font-style:normal;font-variant:normal;font-weight:bold;font-stretch:normal;font-size:18.56230927px;line-height:160.00000238%;font-family:Arial;-inkscape-font-specification:Arial;text-align:start;letter-spacing:0px;word-spacing:0px;text-anchor:start;fill:#2e5e83;fill-opacity:1;stroke:none;stroke-width:1px;stroke-linecap:butt;stroke-linejoin:miter;stroke-opacity:1"
         x="116.717"
         y="966.01984"
         id="text4323"
         sodipodi:linespacing="160%"
         transform="scale(0.95828054,1.0435357)"><tspan
           sodipodi:role="line"
           x="116.717"
           y="966.01984"
           style="font-size:9.28115463px;line-height:160.00000238%;text-align:start;letter-spacing:0.83353758px;text-anchor:start;fill:#2e5e83;fill-opacity:1"
           id="tspan4325">Solar</tspan></text>
      <text
         xml:space="preserve"
         style="font-style:normal;font-variant:normal;font-weight:bold;font-stretch:normal;font-size:18.56230927px;line-height:160.00000238%;font-family:Arial;-inkscape-font-specification:Arial;text-align:start;letter-spacing:0px;word-spacing:0px;text-anchor:start;fill:#2e5e83;fill-opacity:1;stroke:none;stroke-width:1px;stroke-linecap:butt;stroke-linejoin:miter;stroke-opacity:1"
         x="116.36352"
         y="980.86975"
         id="text4327"
         sodipodi:linespacing="160%"
         transform="scale(0.95828054,1.0435357)"><tspan
           sodipodi:role="line"
           x="116.36352"
           y="980.86975"
           style="font-size:9.28115463px;line-height:160.00000238%;text-align:start;letter-spacing:0.83353758px;text-anchor:start;fill:#2e5e83;fill-opacity:1"
           id="tspan4329">Physics</tspan></text>
    </g>
  </g>
</svg>
