<?xml version="1.0" encoding="UTF-8" standalone="no"?>
<!-- Created with Inkscape (http://www.inkscape.org/) -->

<svg
   xmlns:dc="http://purl.org/dc/elements/1.1/"
   xmlns:cc="http://creativecommons.org/ns#"
   xmlns:rdf="http://www.w3.org/1999/02/22-rdf-syntax-ns#"
   xmlns:svg="http://www.w3.org/2000/svg"
   xmlns="http://www.w3.org/2000/svg"
   xmlns:sodipodi="http://sodipodi.sourceforge.net/DTD/sodipodi-0.dtd"
   xmlns:inkscape="http://www.inkscape.org/namespaces/inkscape"
   width="300"
   height="130"
   viewBox="0 0 300 130"
   id="svg2"
   version="1.1"
   inkscape:version="0.91 r13725"
   sodipodi:docname="wireframe_ok.svg"
   inkscape:export-filename="/mnt/hgfs/Aldebaran/Image/logos/girpas/girpas_proposal02b.png"
   inkscape:export-xdpi="300"
   inkscape:export-ydpi="300">
  <sodipodi:namedview
     id="base"
     pagecolor="#ffffff"
     bordercolor="#666666"
     borderopacity="1.0"
     inkscape:pageopacity="0"
     inkscape:pageshadow="2"
     inkscape:zoom="1.6002136"
     inkscape:cx="149.98364"
     inkscape:cy="-43.475525"
     inkscape:document-units="px"
     inkscape:current-layer="layer1"
     showgrid="false"
     inkscape:snap-center="false"
     inkscape:window-width="1440"
     inkscape:window-height="841"
     inkscape:window-x="0"
     inkscape:window-y="26"
     inkscape:window-maximized="1"
     units="px" />
  <defs
     id="defs4" />
  <metadata
     id="metadata7">
    <rdf:RDF>
      <cc:Work
         rdf:about="">
        <dc:format>image/svg+xml</dc:format>
        <dc:type
           rdf:resource="http://purl.org/dc/dcmitype/StillImage" />
        <dc:title></dc:title>
      </cc:Work>
    </rdf:RDF>
  </metadata>
  <g
     inkscape:label="Calque 1"
     inkscape:groupmode="layer"
     id="layer1"
     transform="translate(0,-922.36216)">
    <g
       id="g4556"
       inkscape:label="WireframeSphere"
       transform="matrix(0.57451146,0,0,0.6187159,164.73482,1132.9185)"
       style="fill:#2e5e83;fill-opacity:1;stroke:#ffffff;stroke-width:1.2335037;stroke-miterlimit:4;stroke-dasharray:none;stroke-opacity:1">
      <g
         id="g4560"
         inkscape:label="Lines of Longitude"
         style="fill:#2e5e83;fill-opacity:1;stroke:#ffffff;stroke-width:1.2335037;stroke-miterlimit:4;stroke-dasharray:none;stroke-opacity:1" />
      <g
         id="g4562"
         inkscape:label="Lines of Latitude"
         style="fill:#2e5e83;fill-opacity:1;stroke:#ffffff;stroke-width:1.2335037;stroke-miterlimit:4;stroke-dasharray:none;stroke-opacity:1" />
    </g>
    <path
       id="path4611"
       d="m 64.863623,938.68217 a 45.960917,49.497272 0 0 0 -43.65429,49.3731 45.960917,49.497272 0 0 0 43.73633,49.41213 c -2.15096,-0.9087 -4.15888,-3.1148 -5.93946,-6.3516 -2.382,-4.3302 -4.38745,-10.5519 -5.79687,-18.2383 -2.81885,-15.37303 -2.81885,-34.27153 0,-49.64453 1.40942,-7.6864 3.41487,-13.9081 5.79687,-18.2383 1.75778,-3.1954 3.73761,-5.3827 5.85742,-6.3125 z m 7.37696,0.2207 c 1.77191,0.5044 3.49187,1.2598 5.14062,2.2578 1.1984,0 2.59968,10e-5 3.40235,0 0.41981,0 0.66751,0 0.96679,0 a 45.960917,49.497272 0 0 0 -9.50976,-2.2578 z m -5.07031,0.037 c -1.52062,0 -3.03424,0.7707 -4.49219,2.2207 3.31503,0 5.14267,0 6.64843,0 -0.27152,-0.5467 -0.54538,-1.0076 -0.8164,-1.3515 -0.48111,-0.6106 -0.92666,-0.8692 -1.33984,-0.8692 z m 1.60937,0.076 c 0.09154,0.095 0.18195,0.1896 0.26953,0.3008 0.37727,0.4787 0.73277,1.1026 1.07422,1.8437 1.21156,0 1.85392,-10e-5 4.9082,0 0.35176,0 0.5003,0 0.83203,0 -2.25828,-1.1856 -4.63209,-1.92 -7.08398,-2.1445 z m 13.92187,2.5176 0.18946,0.3906 -0.03516,0 -0.10351,0 -0.40625,0 c -0.35691,10e-5 -0.884,0 -1.5625,0 -0.52575,0 -1.52878,0 -2.22852,0 2.84225,1.9519 5.46131,4.6048 7.77734,7.832 2.2659,0 4.90894,10e-5 6.42383,0 1.27514,0 2.26481,10e-5 2.93555,0 l 0.47852,0 a 45.960917,49.497272 0 0 0 -13.46876,-8.2226 z m -20.72851,0.3906 c -0.80919,0.944 -1.60089,2.0837 -2.35742,3.459 -0.70253,1.2771 -1.37052,2.7532 -2.00586,4.373 8.23601,0 11.18714,10e-5 14.25195,0 -0.57929,-2.9257 -1.22388,-5.3588 -1.91211,-7.164 -0.09024,-0.2368 -0.17984,-0.4529 -0.27148,-0.668 -1.66625,0 -3.23589,0 -7.70508,0 z m 8.47851,0 c 0.05141,0.1273 0.1035,0.2456 0.1543,0.3789 0.72694,1.9067 1.39208,4.4249 1.98438,7.4531 2.1152,0 3.50058,-2e-4 9.35156,0 1.47333,0 2.20409,0 3.48633,0 -2.45334,-3.317 -5.22347,-5.9819 -8.22266,-7.832 -0.77775,0 -1.25479,0 -2.17383,0 -2.85008,-10e-5 -3.47383,0 -4.58008,0 z m 26.15235,8.2402 0.11133,0.3555 -0.01758,0 -0.04883,0 -0.19531,0 c -0.17186,0 -0.42634,-10e-5 -0.76172,0 -0.67076,0 -1.6604,-10e-5 -2.93555,0 -1.39053,10e-5 -3.86931,0 -5.89648,0 0.51446,0.7515 1.01817,1.5209 1.5,2.3281 1.79346,3.0048 3.35171,6.3947 4.64062,10.0762 3.04628,0 6.6027,10e-5 8.640627,0 1.718,0 3.05139,10e-5 3.95508,0 l 1.02734,0 0.0156,0 a 45.960917,49.497272 0 0 0 -10.035147,-12.7598 z m -39.28906,0.3555 c -1.29539,3.4715 -2.42475,7.6411 -3.32032,12.4043 l 19.6875,0 c -0.34145,-3.5746 -0.74656,-6.8886 -1.21679,-9.8047 -0.14699,-0.9115 -0.30287,-1.762 -0.46094,-2.5996 -3.12091,0 -5.91222,0 -14.68945,0 z m 15.41211,0 c 0.14945,0.8003 0.29798,1.6056 0.4375,2.4707 0.47704,2.9584 0.88592,6.3138 1.23046,9.9336 l 12.67774,0 c 2.18511,0 3.29858,0 5.16992,0 -1.25376,-3.5313 -2.75792,-6.7794 -4.47852,-9.6621 -0.57168,-0.9578 -1.17097,-1.867 -1.7871,-2.7422 -1.44738,0 -2.32989,0 -4.03516,0 -5.76542,-3e-4 -7.14909,0 -9.21484,0 z m 34.169917,12.8555 0.0762,0.3125 -0.0195,0 -0.0664,0 -0.26367,0 c -0.23154,10e-5 -0.57549,0 -1.02734,0 -0.9037,10e-5 -2.23708,0 -3.95508,0 -1.976207,0 -5.452397,0 -8.378907,0 1.58356,4.7124 2.71845,9.8935 3.31641,15.3906 3.448097,0 7.481747,1e-4 9.791007,0 1.95364,-10e-5 3.46846,0 4.4961,0 l 1.16992,0 0.26367,0 a 45.960917,49.497272 0 0 0 -5.40234,-15.7031 z m -53.044917,0.3125 c -0.87503,4.8513 -1.46654,10.0572 -1.7793,15.3906 l 22.58594,0 c -0.16315,-5.5078 -0.47149,-10.6877 -0.90235,-15.3906 l -19.90429,0 z m 20.61914,0 c 0.42988,4.7087 0.73599,9.8887 0.89843,15.3906 l 14.4336,0 c 2.56156,0 3.87879,0 6.06054,0 -0.60626,-5.5096 -1.75881,-10.6931 -3.35937,-15.3906 -1.9485,0 -3.13591,0 -5.43164,0 l -12.60156,0 z m 37.832027,15.4238 c -0.01,0 -0.0273,0.01 -0.0273,0.01 l 0.0859,0.3926 a 45.960917,49.497272 0 0 0 -0.0586,-0.4004 z m -60.269527,0.7305 c -0.29095,5.4375 -0.29095,10.9882 0,16.4257 l 22.64453,0 c 0.07233,-2.6766 0.11914,-5.4086 0.11914,-8.2128 0,-2.8043 -0.04681,-5.5363 -0.11914,-8.2129 -4.80482,0 -9.02284,0 -22.64453,0 z m 23.35351,0 c 0.07211,2.6772 0.11914,5.4086 0.11914,8.2129 0,2.8044 -0.04702,5.5354 -0.11914,8.2128 l 14.41602,0 c 2.59623,0 3.93677,0 6.14258,0 0.26801,-2.6719 0.41406,-5.4126 0.41406,-8.2128 0,-2.8002 -0.14605,-5.541 -0.41406,-8.2129 l -6.14258,0 c -9.02889,-4e-4 -11.25121,-1e-4 -14.41602,0 z m 21.27149,0 c 0.26502,2.673 0.41015,5.4144 0.41015,8.2129 0,2.7989 -0.14504,5.5393 -0.41015,8.2128 3.411337,10e-5 7.420547,10e-5 9.710927,0 l 4.4961,0 1.16992,0 0.29687,0 0.0762,0 c 0.0167,0 -0.13282,0.041 -0.13282,0.041 l 0.11328,0.5156 a 45.960917,49.497272 0 0 0 0.74219,-8.7695 45.960917,49.497272 0 0 0 -0.72265,-8.2129 l -0.0762,0 -0.29687,0 -1.16992,0 c -1.02765,1e-4 -2.54245,0 -4.4961,0 l -9.710927,0 z m -44.58594,17.1894 c 0.3128,5.33403 0.90411,10.53893 1.7793,15.39063 l 19.90429,0 c 0.43086,-4.7029 0.7392,-9.8828 0.90235,-15.39063 -4.79732,10e-5 -9.03855,0 -22.58594,0 z m 23.29687,0 c -0.16244,5.50183 -0.46856,10.68203 -0.89843,15.39063 l 12.60156,0 c 2.29572,0 3.48314,0 5.43164,0 1.60056,-4.6975 2.75311,-9.881 3.35937,-15.39063 -2.18175,0 -3.49898,0 -6.06054,0 -9.0399,-3e-4 -11.26203,0 -14.4336,0 z m 21.20899,0 c -0.59798,5.49683 -1.73293,10.67853 -3.31641,15.39063 2.92651,10e-5 6.40271,10e-5 8.378907,0 1.718,-10e-5 3.05139,0 3.95508,0 0.45185,-10e-5 0.79582,0 1.02734,0 l 0.26367,0 0.0644,0 c 0.0147,0 -0.15234,0.049 -0.15234,0.049 l 0.082,0.3379 a 45.960917,49.497272 0 0 0 5.46485,-15.77743 l -0.0137,0 -0.29687,0 c -0.26329,0 -0.65609,-10e-5 -1.16992,0 -1.02765,0 -2.54245,-10e-5 -4.4961,0 -2.30927,0 -6.34291,0 -9.791007,0 z m -42.58399,16.15433 c 0.89555,4.7627 2.02502,8.9331 3.32032,12.4043 8.77721,3e-4 11.56853,2e-4 14.68945,0 0.15819,-0.8381 0.31384,-1.6894 0.46094,-2.6016 0.47023,-2.9161 0.87534,-6.2281 1.21679,-9.8027 l -19.6875,0 z m 20.40039,0 c -0.34454,3.6199 -0.75342,6.9752 -1.23046,9.9336 -0.1396,0.8657 -0.28796,1.67 -0.4375,2.4707 2.06575,-10e-5 3.44941,-3e-4 9.21484,0 1.70527,0 2.58777,0 4.03516,0 0.61613,-0.8752 1.21542,-1.7844 1.7871,-2.7422 1.7206,-2.8827 3.22476,-6.1308 4.47852,-9.6621 -1.87134,0 -2.98481,0 -5.16992,0 l -12.67774,0 z m 18.60547,0 c -1.28891,3.6815 -2.84716,7.0714 -4.64062,10.0762 -0.48183,0.8072 -0.98554,1.5766 -1.5,2.3281 2.02717,0 4.50595,1e-4 5.89648,0 1.27514,-10e-5 2.26481,0 2.93555,0 0.33537,0 0.5899,1e-4 0.76172,0 l 0.19531,0 0.04883,0 c 0.01087,0 -0.19922,0.078 -0.19922,0.078 l 0.09961,0.3145 a 45.960917,49.497272 0 0 0 10.082027,-12.7969 l -0.0566,0 -1.02734,0 c -0.9037,10e-5 -2.23708,0 -3.95508,0 -2.037937,10e-5 -5.594347,0 -8.640627,0 z m -35.39062,13.168 c 0.63523,1.6194 1.30347,3.0942 2.00586,4.3711 0.75653,1.3753 1.54823,2.5169 2.35742,3.4609 4.80986,0 6.15922,0 7.70508,0 0.09164,-0.2151 0.18124,-0.4312 0.27148,-0.668 0.68808,-1.8048 1.33291,-4.2391 1.91211,-7.164 -3.0648,0 -6.01591,0 -14.25195,0 z m 14.98047,0 c -0.5922,3.0273 -1.2576,5.5468 -1.98438,7.4531 -0.0509,0.1335 -0.1028,0.2514 -0.1543,0.3789 1.03702,0 1.67374,-10e-5 4.58008,0 0.91738,0 1.3933,0 2.16992,0 3.00058,-1.8502 5.77224,-4.5137 8.22657,-7.832 -1.28224,0 -2.013,0 -3.48633,0 -5.85096,-3e-4 -7.23636,0 -9.35156,0 z m 13.74218,0 c -2.31603,3.2272 -4.93509,5.8801 -7.77734,7.832 0.69974,0 1.70277,10e-5 2.22852,0 0.67849,-10e-5 1.20562,0 1.5625,0 l 0.40625,0 0.10351,0 c 0.02308,0 -0.25586,0.1641 -0.25586,0.1641 l 0.08594,0.1777 a 45.960917,49.497272 0 0 0 13.46094,-8.1738 c -0.14263,0 -0.25471,-1e-4 -0.45508,0 -0.67076,0 -1.6604,-1e-4 -2.93555,0 -1.51489,0 -4.15793,0 -6.42383,0 z m -23.65429,8.5957 c 1.45795,1.45 2.97157,2.2207 4.49219,2.2207 0.41318,0 0.85873,-0.2586 1.33984,-0.8692 0.27102,-0.3439 0.54489,-0.8048 0.8164,-1.3515 -1.42198,0 -3.0979,0 -6.64843,0 z m 7.44531,0 c -0.34129,0.7406 -0.69715,1.3652 -1.07422,1.8437 -0.08706,0.1105 -0.17835,0.2053 -0.26953,0.2989 2.45179,-0.2246 4.82579,-0.9571 7.08398,-2.1426 -0.33173,0 -0.48027,0 -0.83203,0 -3.11454,-10e-5 -3.75943,0 -4.9082,0 z m 7.25781,0 c -1.57045,0.9506 -3.20586,1.6777 -4.88867,2.1816 a 45.960917,49.497272 0 0 0 9.12891,-2.1816 l -0.83789,0 c -0.80268,0 -2.20395,0 -3.40235,0 z"
       style="fill:#2e5e83;fill-opacity:1;stroke:none;stroke-width:0.73541999;stroke-miterlimit:4;stroke-dasharray:none;stroke-opacity:1"
       inkscape:connector-curvature="0" />
    <path
       style="color:#000000;font-style:normal;font-variant:normal;font-weight:normal;font-stretch:normal;font-size:medium;line-height:normal;font-family:sans-serif;text-indent:0;text-align:start;text-decoration:none;text-decoration-line:none;text-decoration-style:solid;text-decoration-color:#000000;letter-spacing:normal;word-spacing:normal;text-transform:none;direction:ltr;block-progression:tb;writing-mode:lr-tb;baseline-shift:baseline;text-anchor:start;white-space:normal;clip-rule:nonzero;display:inline;overflow:visible;visibility:visible;opacity:1;isolation:auto;mix-blend-mode:normal;color-interpolation:sRGB;color-interpolation-filters:linearRGB;solid-color:#000000;solid-opacity:1;fill:#18ff44;fill-opacity:1;fill-rule:nonzero;stroke:none;stroke-width:1.2335037;stroke-linecap:butt;stroke-linejoin:miter;stroke-miterlimit:4;stroke-dasharray:none;stroke-dashoffset:0;stroke-opacity:1;color-rendering:auto;image-rendering:auto;shape-rendering:auto;text-rendering:auto;enable-background:accumulate"
       d="m 67.170963,938.17607 c -25.57501,0 -46.3155,22.3363 -46.3155,49.8791 0,27.54283 20.74049,49.87913 46.3155,49.87913 25.57501,0 46.315497,-22.3363 46.315497,-49.87913 0,-27.5428 -20.740487,-49.8791 -46.315497,-49.8791 z m 0,0.7637 c 25.19202,0 45.606337,21.985 45.606337,49.1154 0,27.13043 -20.414317,49.11543 -45.606337,49.11543 -25.19202,0 -45.60634,-21.985 -45.60634,-49.11543 0,-27.1304 20.41432,-49.1154 45.60634,-49.1154 z"
       id="path4613"
       inkscape:connector-curvature="0" />
  </g>
</svg>
